<svg id="Layer_1" data-name="Layer 1" xmlns="http://www.w3.org/2000/svg" xmlns:xlink="http://www.w3.org/1999/xlink" viewBox="0 0 313 155.3"><defs><style>.cls-1,.cls-2{fill:#fff;}.cls-10,.cls-11,.cls-12,.cls-13,.cls-14,.cls-16,.cls-17,.cls-2,.cls-6,.cls-7,.cls-8,.cls-9{fill-rule:evenodd;}.cls-3{fill:#f5f5f5;}.cls-4{mask:url(#mask);}.cls-5{mask:url(#mask-2);}.cls-23,.cls-6{fill:#dcdcdc;}.cls-7{fill:#c3c3c3;}.cls-8{fill:#285718;}.cls-9{fill:#4b9e32;}.cls-10{fill:#7edb6f;}.cls-11{fill:#c6f6c6;}.cls-12{fill:#eafdeb;}.cls-13,.cls-19{fill:#b2b5ba;}.cls-14{fill:#a9a9a9;}.cls-15,.cls-17{fill:#414347;}.cls-18,.cls-20,.cls-21,.cls-22{fill:none;stroke-miterlimit:10;}.cls-18,.cls-20,.cls-21{stroke:#b2b5ba;stroke-linecap:round;}.cls-18{stroke-width:0.52px;}.cls-20{stroke-width:0.44px;}.cls-21{stroke-width:0.42px;}.cls-22{stroke:#fff;stroke-width:0.5px;}.cls-23{opacity:0.5;}</style><mask id="mask" x="1.13" y="-0.26" width="312.17" height="156" maskUnits="userSpaceOnUse"><g id="_2jrjymnoib" data-name="2jrjymnoib"><rect id="gixa0b5caa" class="cls-1" x="1.13" y="-0.26" width="312.17" height="156" rx="8"/></g></mask><mask id="mask-2" x="76.17" y="31.74" width="162.04" height="162.71" maskUnits="userSpaceOnUse"><g id="b55bldddud"><path id="_9bpfc9z37c" data-name="9bpfc9z37c" class="cls-2" d="M238.21,194.44h-162V31.74h162Z"/></g></mask></defs><rect class="cls-3" width="313" height="155.3" transform="translate(313 155.3) rotate(-180)"/><g class="cls-4"><g class="cls-5"><path class="cls-6" d="M227.19,155.12a78.77,78.77,0,0,0,3.93-72.84c-12.83-28.56-37.89-40.46-48.22-44.34-26.88-10.1-66-9-79.49,12-6.24,9.71.34,12.17-6.33,34-7.34,24-18.24,30.72-20.31,53.33-.61,6.68-1.09,12.19.41,17.8Z"/></g><path class="cls-7" d="M82.62,154.53l.87.59h27.56c38.51-3.18,108.32-9.39,108.32-10.43l2-102.15-3.6-2a5.92,5.92,0,0,0-2.41-.84l-131.9,9.8a2.62,2.62,0,0,0-2.51,2.67v99.45A3.49,3.49,0,0,0,82.62,154.53Z"/><path class="cls-2" d="M117.22,155.12l103-7.65h0a2.63,2.63,0,0,0,2.51-2.68V45.44a3.49,3.49,0,0,0-3.62-3.39l-131.9,9.8a2.62,2.62,0,0,0-2.51,2.67v99.35a3.12,3.12,0,0,0,.27,1.25Z"/><path class="cls-8" d="M92.09,151.14A2.25,2.25,0,0,1,89.76,149V60.36a1.69,1.69,0,0,1,1.62-1.72l9.23-.58a2.27,2.27,0,0,1,2.33,2.19v88.59a1.69,1.69,0,0,1-1.62,1.72l-9.23.58Z"/><path class="cls-9" d="M110,149.75a2.27,2.27,0,0,1-2.32-2.22V72.4a1.71,1.71,0,0,1,1.62-1.75l9.23-.58a2.26,2.26,0,0,1,2.33,2.21v75.14a1.7,1.7,0,0,1-1.62,1.74l-9.24.59Z"/><path class="cls-10" d="M127.94,148.36a2.39,2.39,0,0,1-2.33-2.46V85.31a1.83,1.83,0,0,1,1.62-1.94l9.24-.65a2.39,2.39,0,0,1,2.33,2.46v60.59a1.81,1.81,0,0,1-1.62,1.93l-9.24.65Z"/><path class="cls-11" d="M145.87,147.18a2.43,2.43,0,0,1-2.33-2.53v-48a1.87,1.87,0,0,1,1.62-2L154.4,94a2.43,2.43,0,0,1,2.33,2.53v48a1.86,1.86,0,0,1-1.62,2l-9.24.67Z"/><path class="cls-12" d="M163.8,145.78c-1.21.12-2.33-1.48-2.33-3.33V107.76c0-1.43.68-2.54,1.62-2.63l9.24-.88c1.21-.12,2.33,1.48,2.33,3.33v34.7c0,1.43-.69,2.53-1.62,2.62l-9.24.88Z"/><path class="cls-13" d="M181.73,144.39a2.25,2.25,0,0,1-2.33-2.18V128.3a1.69,1.69,0,0,1,1.62-1.72l9.24-.58a2.24,2.24,0,0,1,2.32,2.19v13.9a1.7,1.7,0,0,1-1.62,1.73l-9.23.57Z"/><path class="cls-14" d="M213.2,61.44a56.22,56.22,0,0,0-17.81-14.73.29.29,0,0,0-.39.13.3.3,0,0,0,.12.4,55.38,55.38,0,0,1,17.62,14.57.3.3,0,1,0,.46-.37Zm2.11,10.09c-4.1-8-8.82-13.67-14.86-17.75a.3.3,0,0,0-.41.08.29.29,0,0,0,.08.41c5.95,4,10.61,9.59,14.66,17.53A.31.31,0,0,0,215,72a.23.23,0,0,0,.14,0A.3.3,0,0,0,215.31,71.53Zm-7.13,59.23-9.23.58a1.69,1.69,0,0,0-1.58,1.33,1.86,1.86,0,0,0,0,.34v8a2.12,2.12,0,0,0,.08.57,2.49,2.49,0,0,0,.11.29s0,0,0,0a1.35,1.35,0,0,0,.15.26,1.7,1.7,0,0,0,.23.3,2.21,2.21,0,0,0,1.74.73l1.39-.09.32,0,.32,0,.42,0h0l1.57-.09.47,0h.14l.3,0h0l.44,0,.43,0,1.35-.08,2-.13a1.69,1.69,0,0,0,1.62-1.72v-8A2.25,2.25,0,0,0,208.18,130.76Z"/><path class="cls-15" d="M234.11,155.12a48.46,48.46,0,0,0,4.14-20.19c-.2-11.31-4.77-28.77-14.2-30.8a10,10,0,0,0-1.31-.18,9.32,9.32,0,0,0-2.58.21,15,15,0,0,0-4.6,2h0a33.74,33.74,0,0,0-3.1,2.24l-.63.5-.57.48-.21.18-1.09.93h0c-.66.58-1.33,1.17-2,1.79l-.16.14-.34.31-.34.31c-.47.41-.94.84-1.42,1.28l-.1.09-.33.29A80.72,80.72,0,0,1,190.14,126a48.91,48.91,0,0,1-4.77,2.3l-.27.11-.27.11-.91.35-.69.26-.62.22c-1,.36-2.11.69-3.21,1l-.37.1h0c-.75.19-1.48.36-2.19.5s-1.47.3-2.17.4l-.27,0a40,40,0,0,1-7.51.44h-.62c-1.75-.09-3.33-.27-4.79-.45-1.7-.2-3.25-.4-4.74-.43h-.34a12.82,12.82,0,0,0-8.69,3.15,17.23,17.23,0,0,0-4.16,5,29.12,29.12,0,0,0-3.44,13.63c0,.25,0,.5,0,.75,0,.56,0,1.13,0,1.71Z"/><path class="cls-13" d="M181.66,155.12l-.26-.48a13.37,13.37,0,0,0-1.55-2.18c-.2-.22-.37-.41-.53-.56a.9.9,0,0,0-1.3,0l-1.16,1.31-.34.38-.09-.27-.14-.39a.87.87,0,0,0-1.19-.51l-1.34.63s-.08.38-.2,1c-.06.29-.12.63-.18,1Z"/><path d="M173.68,155.12c.07-.42.13-.79.19-1.09s.11-.59.14-.74l1.21-.56a.59.59,0,0,1,.47,0,.6.6,0,0,1,.33.35l.13.36.28-.07.09.27.34-.38.52-.14.86-1a.59.59,0,0,1,.43-.21.6.6,0,0,1,.44.18c.13.13.27.27.42.44a12.36,12.36,0,0,1,1.52,2.07l.28.5H182a.36.36,0,0,1,0-.09l-.2-.37h0a12.93,12.93,0,0,0-1.57-2.28c-.23-.27-.45-.5-.64-.69a1.21,1.21,0,0,0-.88-.34,1.18,1.18,0,0,0-.85.4l-1.16,1.31-.07-.19a1.17,1.17,0,0,0-1.6-.67l-1.47.68,0,.15c0,.08-.11.51-.23,1.16-.05.27-.1.59-.16.93Z"/><path class="cls-16" d="M164.31,149.34l.39.64.28.47c.24.37.46.73.67,1.07,1.07,1.71,1.92,3,2.32,3.6h1.74l3.53-.93.32-.08.31-.08,2.28-.6.28-.07.43-.11.52-.14,2.15-.56.32-.09.32-.08,10.4-2.72,7.29-1.9-.16-.4-1.24-3.07-.12-.3-.12-.29-.53-1.31-.24-.6-.17-.43-.08-.2-1.63-4h0l-.13-.33-.14-.36,0-.09a6.33,6.33,0,0,0-.67-.33l-1.53-.68h0l-.6-.25-.44-.2c-.9-.38-1.95-.83-3.1-1.3l-.35-.15-.34-.14c-2.09-.86-4.45-1.81-6.81-2.71l-.37-.14h0c-1.49-.57-3-1.11-4.36-1.6a58.12,58.12,0,0,0-5.91-1.78c-1.26-.28-2.38-.52-3.39-.7l-.33-.06-.32,0h0a14.71,14.71,0,0,0-3.24-.21c-2.2.15-3.61,1.11-4.74,3.39l0,.06a3.25,3.25,0,0,0-.31,1.43,10.08,10.08,0,0,0,.34,2.66C157.85,138.09,161.44,144.59,164.31,149.34Z"/><path class="cls-16" d="M174.85,155.12l.05-1s2.53.28,6.15.49l.35,0,.34,0h0c7.89.43,20.22.47,23.79-3.07a11.56,11.56,0,0,0,2.36-3.21,8,8,0,0,0,.65-1.91c0-.09,0-.17,0-.24a.13.13,0,0,0,0-.06h0l0-.31a2.46,2.46,0,0,0,0-.26c0-.12,0-.22,0-.33h0a1.82,1.82,0,0,0,0-.33,4,4,0,0,0-.19-1.21l-1.66-.32-.8-.15-.64-.13-.63-.12h0l-.43-.08-.21,0-.68-.13-1.65-.32-.29-.06-.15,0-2-.38-2-.37-2.21-.43-.58-.11h-.91l-1.13,0c-.92,0-2.1.07-3.46.14h-.3l-.29,0-2.11.12-.29,0-2.18.16-.31,0-1.92.17-.24,0c-.69.07-1.39.15-2.08.24-1.63.19-3.25.42-4.77.7h0c-.4.07-.79.15-1.18.24s-.75.15-1.12.24a14,14,0,0,0-5.58,2.29,3.05,3.05,0,0,0-.36.36A10.93,10.93,0,0,0,164.7,150h0s0,0,0,0-.07.29-.1.45c-.08.36-.16.74-.24,1.13-.2,1.08-.39,2.26-.56,3.51Z"/><path class="cls-2" d="M164.4,150.28l-.1,0a.29.29,0,0,1-.18-.37,14.28,14.28,0,0,1,2-4.21c2.63-3.11,20.11-4.66,27.51-5.19a.3.3,0,0,1,0,.59c-11.77.83-25.07,2.58-27.11,5a14.23,14.23,0,0,0-1.89,4,.29.29,0,0,1-.27.2Z"/><path class="cls-14" d="M172,116.89a2.29,2.29,0,0,0,.26,1.56c1.35,2.33,6.08,10,10.46,10.63,4.19.61,9.26-2,11.71-2.05a31.34,31.34,0,0,0-1,5.58c0,.29.21,8.06.18,8.36l13.15,3.25.16-6.53,9.76,2.68s3.61-4.59,2.81-14.11c-.76-9.14-5.53-10.58-8.69-11.7a9.1,9.1,0,0,0-4.28-.09c-12.91-.33-18,5.54-22.08,5.42s-7.43-5.23-7.43-5.23a2.66,2.66,0,0,0-3.54-.28,3.65,3.65,0,0,0-1.47,2.51Z"/><path class="cls-16" d="M174.67,119.1a2.86,2.86,0,0,1-2.12-1.4.3.3,0,0,1,.1-.4.3.3,0,0,1,.41.1s.68,1.11,1.62,1.11h0c.72,0,1.49-.71,2.22-2a.28.28,0,0,1,.39-.12.29.29,0,0,1,.12.4c-.85,1.53-1.76,2.3-2.73,2.32Z"/><path class="cls-2" d="M164.78,106.86a.61.61,0,0,0,.4.78l3.14,1-.12.07a1.39,1.39,0,0,0-.68,1.38c.67,6.29,3.29,3.19,3.29,3.19a5.28,5.28,0,0,0,1.51,1.22c1.68,4,2.28,3.39,3.09,2.86a2.78,2.78,0,0,0,.76-.89,1.65,1.65,0,0,0-.17-1.89,35.55,35.55,0,0,1-3.26-5c-.46-.79-.49-1.66-1.3-1.84l-6-1.27a.59.59,0,0,0-.7.4Z"/><path class="cls-16" d="M176.25,114.39s0,0,0,0-.25-.3-.37-.46l-.27-.35c-.33-.43-.64-.88-.93-1.33-.66-1-1.2-2-1.5-2.51l-.17-.29a5.12,5.12,0,0,1-.31-.68c-.23-.56-.46-1.14-1.18-1.3l-5.95-1.28a.9.9,0,0,0-1,.6.91.91,0,0,0,.58,1.16l2.59.8a1.7,1.7,0,0,0-.45,1.37c.26,2.51.86,3.87,1.82,4.17a1.92,1.92,0,0,0,1.75-.58,5.77,5.77,0,0,0,1.29,1c.13.31.25.59.38.85a0,0,0,0,0,0,0l.15.33h0c.63,1.29,1.14,1.91,1.66,2.07a.93.93,0,0,0,.27,0h.1a1.83,1.83,0,0,0,.8-.36l.11-.07a2.85,2.85,0,0,0,.85-1A2,2,0,0,0,176.25,114.39Zm-.34,1.91a2.38,2.38,0,0,1-.67.79l-.1.07a1.79,1.79,0,0,1-.48.26.34.34,0,0,1-.2,0c-.4-.12-.94-1-1.61-2.46l-.26-.6a.28.28,0,0,0-.15-.15,5.53,5.53,0,0,1-1.37-1.11l0,0a.35.35,0,0,0-.22-.1.27.27,0,0,0-.22.11l-.17.18a1.38,1.38,0,0,1-1.2.44c-.39-.12-1.1-.76-1.41-3.66a1.09,1.09,0,0,1,.54-1.09l.11-.06a.32.32,0,0,0,.16-.29.3.3,0,0,0-.21-.26l-3.14-1a.33.33,0,0,1-.19-.16.31.31,0,0,1,0-.25.33.33,0,0,1,.3-.22h.06l6,1.27c.39.09.53.39.75.95a6.2,6.2,0,0,0,.35.75l.17.29c.38.67,1.12,2,2,3.26l.41.57a.35.35,0,0,0,.08.1.41.41,0,0,0,.07.11c.19.24.37.48.56.7A1.36,1.36,0,0,1,175.91,116.3Z"/><path class="cls-16" d="M171.07,113.1l0,0a1.73,1.73,0,0,1-.51-1.17.29.29,0,0,0-.28-.31.3.3,0,0,0-.31.27,2.31,2.31,0,0,0,.49,1.4l.19.21s0,0,0,0a.27.27,0,0,0,.21.09.3.3,0,0,0,.22-.49Zm.49-1.52c-.14-.08-.4-.25-.71-.47a5.48,5.48,0,0,1-1.43-1.37.63.63,0,0,1-.14-.42c0-.15,0-.17.15-.21a2,2,0,0,1,1.06.32.29.29,0,0,0,.4-.1.28.28,0,0,0-.1-.4,2.25,2.25,0,0,0-1.54-.37.74.74,0,0,0-.56.74,1.33,1.33,0,0,0,.24.78,6.35,6.35,0,0,0,1.58,1.51c.2.14.56.39.76.5a.23.23,0,0,0,.14,0,.3.3,0,0,0,.26-.15A.29.29,0,0,0,171.56,111.58Z"/><path class="cls-2" d="M193.3,130.82a11.35,11.35,0,0,1,4.11,2.27,7.35,7.35,0,0,0,1.54,1c4.25,2.11,16.35,5.41,16.35,5.41-.39,1.63-1.81,8.15-5.66,6.23a24.64,24.64,0,0,1-6.4-4.53s-4.25-3.92-4.9-4-7.55.28-8.23-3a.86.86,0,0,1,.62-1,9.78,9.78,0,0,1,4.22.32c.08,0,.11-.12,0-.16a15.74,15.74,0,0,1-2.5-1.73c-.48-.61.14-1.06.81-.84Z"/><path class="cls-16" d="M215.37,139.26c-.05,0-2.14-.58-4.86-1.4l-1.57-.47-1.33-.42c-.48-.14-1-.29-1.45-.45-1-.34-2.08-.68-3-1l-.28-.1a36.21,36.21,0,0,1-3.75-1.52,6.83,6.83,0,0,1-1.48-1l-.23-.19a11.52,11.52,0,0,0-3.66-2l-.31-.11a1.22,1.22,0,0,0-.82,0,.8.8,0,0,0-.42.3.81.81,0,0,0,.1,1,2.39,2.39,0,0,0,.32.32,10.74,10.74,0,0,0,.89.63v-.18c0-.06,0-.11,0-.17l0-.33a4.27,4.27,0,0,1-.8-.64c-.05-.06-.15-.21-.08-.3a.52.52,0,0,1,.57-.07l.41.15a10.77,10.77,0,0,1,3.6,2.05l.11.09a7.2,7.2,0,0,0,1.49,1,39.31,39.31,0,0,0,3.77,1.54l.28.1.29.1c0-.09.08-.18.11-.27l1.24.43a0,0,0,0,1,0,0c.53.31,1,.58,1.47.79l1.43.46h0l3.07.94c2.09.62,3.78,1.09,4.44,1.27l0,.11c-.35,1.45-1.26,4.91-3.08,5.77a2.29,2.29,0,0,1-2.07-.13c-.28-.14-.65-.33-1.1-.58s-1.18-.69-1.86-1.14l-.79-.54-.53-.41-.43,0-.32-.26-.55-.46-.34-.31-.61-.6-.17-.15A.6.6,0,0,0,203,141l0,0-.24-.21,0,0-.35-.32-.28-.25-.19-.17-.2-.18q-.21-.16-.42-.36l0,0,.19-.24-.23-.19-.21-.19a10.27,10.27,0,0,0-2.58-1.85c-.12,0-.32,0-.64,0h-.4v.29H197l-.73,0-.65,0-.47-.05c-.3,0-.61-.08-.92-.13s-.41-.07-.62-.12l-.13,0c-.29-.08-.58-.16-.85-.26v-.31a4.41,4.41,0,0,1-1.53-.89h0a2.22,2.22,0,0,1-.65-1.13.58.58,0,0,1,.41-.68,5.61,5.61,0,0,1,1.78-.06v-.3c.27,0,.57.06.9.11,0-.11,0-.2,0-.29-.32-.05-.62-.09-.89-.11a6,6,0,0,0-1.92.08,1.15,1.15,0,0,0-.84,1.37,2.45,2.45,0,0,0,.18.56,4,4,0,0,0,2.58,2,9.34,9.34,0,0,0,1,.28h0a20,20,0,0,0,3.76.39h.39l.58,0a13.06,13.06,0,0,1,2.28,1.73l.21.19.23.19c.65.57,1.35,1.19,2,1.81a17.73,17.73,0,0,0,1.57,1.44h0l.12.1h0c.47.39.94.74,1.4,1.05h0l.05,0c.92.63,1.78,1.14,2.45,1.51l.85.44.14.07h0a1.84,1.84,0,0,0,.48.17,2.51,2.51,0,0,0,.84.14,2.62,2.62,0,0,0,.79-.13h0l.27-.11a2.94,2.94,0,0,0,.64-.42,4.23,4.23,0,0,0,1-1.19l.09-.12a10.4,10.4,0,0,0,.68-1.33h0a22.71,22.71,0,0,0,1-3.08l.06-.25,0-.15A.3.3,0,0,0,215.37,139.26Z"/><path class="cls-14" d="M203.24,135.2c6.73,2.93,13.09-5.14,14.33-15.91,2.73,3.73,3.37,7.72,2.53,12.37a26.13,26.13,0,0,1-5.34,11.63L213.39,145a3.77,3.77,0,0,1-5.31.83L200.26,140a14,14,0,0,0,3-4.82Z"/><path class="cls-16" d="M219.8,122.72v0a15.24,15.24,0,0,0-2-3.57.28.28,0,0,0-.39-.07h0a.3.3,0,0,0-.07.41,2.11,2.11,0,0,1,.18.27,13,13,0,0,1,1.06,1.71s0,0,0,0h0a0,0,0,0,1,0,0,37462206683.7,37462206683.7,0,0,0,0,.06,12.44,12.44,0,0,1,1.15,3,17.1,17.1,0,0,1,.05,7c-.06.31-.13.64-.2,1v.06c-.15.68-.33,1.35-.54,2a0,0,0,0,1,0,0,26,26,0,0,1-2.56,5.64,26.58,26.58,0,0,1-2,2.8h0l-.9,1.14h0l-.45.57a3.38,3.38,0,0,1-1.1,1,1.91,1.91,0,0,1-.32.16h-.1a3.12,3.12,0,0,1-1.49.26,3.19,3.19,0,0,1-.82-.13h0a3.31,3.31,0,0,1-.67-.29,3.22,3.22,0,0,1-.39-.25l-2-1.52-.05,0h0l-1.4-1.05h0l-.12-.1h0l-3.9-2.91c.11-.11.21-.22.31-.34l.18-.22.19-.24a16.2,16.2,0,0,0,1.77-3.06c0-.09.08-.18.11-.27a2.56,2.56,0,0,0,.11-.24c.4.24.77.47,1.13.67a0,0,0,0,1,0,0c.53.31,1,.58,1.47.79a5.63,5.63,0,0,0,1.43.46h0a2.75,2.75,0,0,0,.95,0h0l.23,0,.31-.1a4.52,4.52,0,0,0,1.57-1.16,27.75,27.75,0,0,0,3.44-5.35.29.29,0,0,0-.09-.39h0a.3.3,0,0,0-.4.12c-.36.67-.7,1.28-1,1.82a21.72,21.72,0,0,1-1.91,2.9,4.22,4.22,0,0,1-2,1.6,1.91,1.91,0,0,1-.86.05,4.05,4.05,0,0,1-1.45-.45c-.49-.23-1-.54-1.66-.91l-.94-.57-.45-.28-.14.32c0,.1-.09.2-.14.31s-.07.18-.11.27-.08.18-.13.27a15,15,0,0,1-1.64,2.88c-.06.07-.12.15-.19.22s-.12.16-.18.24-.34.37-.52.54l-.26.24,3.62,2.7.28.21,1,.73,3.21,2.39.27.19h0a2.53,2.53,0,0,0,.36.2,4,4,0,0,0,1.76.41,3.39,3.39,0,0,0,.64,0,3.92,3.92,0,0,0,2.23-1.13h0a3.58,3.58,0,0,0,.44-.51l1.36-1.72a26.78,26.78,0,0,0,4.57-8.44v0a24.61,24.61,0,0,0,.83-3.28A16.55,16.55,0,0,0,219.8,122.72Zm-27.45,4.39-.06,0c-.49.13-1,.29-1.56.45a30.53,30.53,0,0,1-5.21,1.21l-.3,0-.29,0c-.34,0-.68,0-1,0a8.32,8.32,0,0,1-1.12-.08,7,7,0,0,1-3.1-1.49,25.92,25.92,0,0,1-4.85-5.42l-.19-.26s0,0,0,0a2.73,2.73,0,0,1-.21-.3c-.84-1.24-1.5-2.33-1.88-3a2,2,0,0,1-.22-1.35,6.62,6.62,0,0,1,.3-1h0a.27.27,0,0,0-.14-.35h0a.29.29,0,0,0-.38.16,6.67,6.67,0,0,0-.34,1.14,2.53,2.53,0,0,0,.3,1.76c.35.6.92,1.55,1.65,2.65l.2.31.21.3.55.77a24.87,24.87,0,0,0,4.8,5.21,7.57,7.57,0,0,0,3.15,1.52l.11,0a10.39,10.39,0,0,0,1.37.09c.33,0,.67,0,1,0l.3,0,.29,0a33.26,33.26,0,0,0,5.22-1.22c.57-.17,1.1-.33,1.6-.46h0a.28.28,0,0,0,.2-.34h0A.29.29,0,0,0,192.35,127.11Zm13.32-12.74a.3.3,0,0,0-.29-.21,35.1,35.1,0,0,0-15.9,3.82c-2,.92-3.59,1.65-5,1.61-3.86-.12-7.17-5-7.2-5.1l0,0a2.7,2.7,0,0,0-1.67-.9l-.15,0a.31.31,0,0,0-.19.06.28.28,0,0,0-.12.21v0a.3.3,0,0,0,0,.1.41.41,0,0,0,.07.11.3.3,0,0,0,.18.08,1.35,1.35,0,0,1,.29,0h0a1.51,1.51,0,0,1,.55.22,2.56,2.56,0,0,1,.57.45c.28.42,3.58,5.21,7.65,5.34h.14c1.5,0,3.1-.74,5.11-1.66a34.67,34.67,0,0,1,15.52-3.77h.14a.29.29,0,0,0,.3-.29h0A.19.19,0,0,0,205.67,114.37Z"/><path class="cls-2" d="M212.88,115.16a1.6,1.6,0,0,1-.9,1.24l-.3.13a3.31,3.31,0,0,1-3.81-.54,2.3,2.3,0,0,1-.65-1.82l.6-4,5.91-1.83-.85,6.81Z"/><path class="cls-16" d="M213.91,108.12a.29.29,0,0,0-.27-.05l-1.19.37-4.72,1.46a.27.27,0,0,0-.2.23l-.33,2.16-.11.8-.16,1a2.83,2.83,0,0,0,0,.29,2.66,2.66,0,0,0,.76,1.79,3.29,3.29,0,0,0,2.42,1,4.1,4.1,0,0,0,1.72-.39l.29-.14a1.93,1.93,0,0,0,1-1.22c0-.08,0-.17,0-.25l.74-5.92.11-.89A.3.3,0,0,0,213.91,108.12Zm-.73,2.26-.59,4.73a.29.29,0,0,1,0,.09,1.29,1.29,0,0,1-.72.93l-.29.13a3,3,0,0,1-3.48-.48,2,2,0,0,1-.58-1.45.57.57,0,0,1,0-.13l.26-1.73,0-.13.29-1.94,3.17-1,2.13-.66Z"/><path class="cls-16" d="M207.52,98.4c-2-.23-3.35,2.26-3.14,3.35s2.59.76,3,2.07c.25.85-.94,1.35-2.58,4.17-.35.6-.66,1.25-.9,1.76a.93.93,0,0,0,.3,1.14c2.2,1.59,3.74,1.63,4.47,1.27,1.15-.58,1.25-2.44,2.36-2.55.85-.09,1.21,1,2,.84s.8-1.25,1.72-2.93c1.32-2.4,2.37-2.54,2.74-3.71.28-.9.06-2.2-.57-2.49-.95-.44-.88-.44-3-.21-.58.07.93-2.24-1.31-2-5.63.63-3.55-.55-5-.72Z"/><path class="cls-2" d="M211.68,104.5a4.72,4.72,0,0,0-4-2.12,15.56,15.56,0,0,1-2.86,3.94.44.44,0,0,0-.07.51.52.52,0,0,0,.16.17l.35.22.08.65s3,1.78,3.61.86c.44-.63,1.13-1.8,1.52-2.48a9.58,9.58,0,0,1,.7-1l.55-.7Z"/><path class="cls-16" d="M211.78,104.14a3.58,3.58,0,0,0-.23-.31c-.15-.16-.28-.32-.44-.46a4.39,4.39,0,0,0-1-.72,4.54,4.54,0,0,0-1.18-.44,6.17,6.17,0,0,0-.62-.11,4.56,4.56,0,0,0-.65,0,.28.28,0,0,0-.24.18,9.1,9.1,0,0,1-.48.93c-.07.13-.14.25-.22.37a12.78,12.78,0,0,1-.86,1.22,13.4,13.4,0,0,1-1,1.15l-.12.14-.07.07,0,0,0,0a.67.67,0,0,0-.11.53.62.62,0,0,0,.11.27.83.83,0,0,0,.18.19l.18.15a2.7,2.7,0,0,0,0,.28l0,.25a.33.33,0,0,0,.14.22,11.08,11.08,0,0,0,2.09,1,3.05,3.05,0,0,0,1.24.19l.18,0c.06,0,.12,0,.19-.08a1,1,0,0,0,.33-.28c.11-.16.21-.32.31-.48.41-.64.79-1.29,1.16-1.94a9,9,0,0,1,.59-.92l.17-.22.2-.28c.13-.18.25-.37.37-.56Zm-.86.84-.17.22c-.23.31-.44.64-.64,1-.37.64-.75,1.29-1.15,1.91l-.3.46a.34.34,0,0,1-.26.12,2.3,2.3,0,0,1-1-.15,10.61,10.61,0,0,1-1.85-.84s0,.1,0,.15l-.14-.21.12.06c0-.16-.05-.33-.07-.5h0a.28.28,0,0,0-.11-.17l0,0-.34-.17c-.09,0-.13-.05-.16-.12a.22.22,0,0,1,0-.19l.25-.26c.35-.37.69-.75,1-1.15a14.42,14.42,0,0,0,1.1-1.47,7.17,7.17,0,0,0,.53-.93h-.14l.24-.18a1.62,1.62,0,0,1-.1.18l.4,0,.54.1a4.67,4.67,0,0,1,1.95,1,3.68,3.68,0,0,1,.39.4c.08.08.09.11.14.15a1.11,1.11,0,0,0,.16.11l-.32.33Z"/><path class="cls-2" d="M201.33,142.34l-2.54-.11-1.1,0-2.12-.09-3-.14-3.3-.15H189l-2.38-.11h0l-2.63-.12-1.3-.05h0l-3.22-.15-4.74-.21-5.54-.25v0l0,.27v0a1.57,1.57,0,0,0,1.49,1.61l2.68.12h.13l1.19.05,1.3.06h0l3.79.17,11.54.52h0l5.08.22,3.5.16a1.52,1.52,0,0,0,1.53-1.05.9.9,0,0,0,.06-.22.83.83,0,0,0,0-.22l0-.29v0Zm11.25-36.16c-.63-.77-2,.92-2,.92A1.08,1.08,0,1,0,212.58,106.18Z"/><path class="cls-16" d="M201.49,142.06l-2.12-.1-1.85-.08h-.17l.19,0a1.35,1.35,0,0,0,.15.26,1.7,1.7,0,0,0,.23.3l2.32.11h0l.92,0v0a.45.45,0,0,1,0,.16.85.85,0,0,1-.09.31,1.26,1.26,0,0,1-1.2.74l-3.63-.16-4.35-.2L179.54,143l-2.28-.1h0l-2.62-.12h-.18l-3.85-.17a1.24,1.24,0,0,1-.87-.41,1.22,1.22,0,0,1-.33-.9v0l5.26.24,4.74.21,1.48.06h0l.81,0,1.92-.17.31,0,2.63.12h0l1.88-.18h.11l-2.17-.1-1.91-.08h0l-5.1-.23-4.74-.21-5.33-.24H169a.31.31,0,0,0-.21.27v.31a1.86,1.86,0,0,0,.48,1.33,1.83,1.83,0,0,0,1.29.6l1.59.07h.11l2.25.1h.05l5.31.24h0l8.84.4h.06l7.66.34,3.37.15h.08a1.85,1.85,0,0,0,1.78-1.37.5.5,0,0,0,0-.13,1.26,1.26,0,0,0,0-.28v-.31A.28.28,0,0,0,201.49,142.06Z"/><path class="cls-2" d="M169.12,140.94l-4.93-17.64c-.07-.27-.17-.53-.25-.8a1,1,0,0,1,1.06-1.35l16.81.75a2.11,2.11,0,0,1,1.7,1L189,141.83l-19.88-.89Z"/><path class="cls-16" d="M189.27,141.74l-.07-.23,0-.07-.06-.21-.11-.37-2.11-7.29-1.22-4.21-.08-.29-.08-.28-.15-.49-.57-2-1-3.5,0-.06a2.34,2.34,0,0,0-1.94-1.16l-7.16-.32h-.23l-.37,0h0l-.35,0-8.69-.39a1.35,1.35,0,0,0-1.15.54,1.3,1.3,0,0,0-.2,1.2l.07.23c.07.19.13.37.18.55l.8,2.87h0l1.55,5.55,2.56,9.17V141a.31.31,0,0,0,.27.21h.3l5.26.24,4.74.21,1.28.06h0l.79,0,2.88.13h0l4.59.21h0l.12,0h0a.39.39,0,0,0,.1-.08.27.27,0,0,0,.06-.21A.13.13,0,0,0,189.27,141.74Zm-25-19.11-.08-.22a.74.74,0,0,1,.12-.67.78.78,0,0,1,.66-.3l9.12.41h.74l6.94.31a1.8,1.8,0,0,1,1.45.84l1,3.34.62,2.15.1.33.08.28.08.29,1.12,3.86,2.22,7.63.1.35.06.22h0v0h-.12l-2.35-.1-1.81-.08h0l-4.91-.22-4.74-.21-5.32-.24v0l-2.45-8.8-1.52-5.47-.88-3.14C164.42,123,164.35,122.82,164.29,122.63Z"/><path class="cls-14" d="M176.94,131.24a1.31,1.31,0,1,0-.89,1.76,1.4,1.4,0,0,0,.89-1.76Z"/><path class="cls-2" d="M184.75,78.79A12.18,12.18,0,1,1,196.93,91a12.2,12.2,0,0,1-12.18-12.2Z"/></g><circle class="cls-15" cx="193.95" cy="82.24" r="15.39"/><path class="cls-17" d="M204.51,81.44v.33a10.56,10.56,0,0,0-21.12,0c0-.11,0-.22,0-.33a10.57,10.57,0,0,1,21.13,0Z"/><line class="cls-18" x1="194.14" y1="95.69" x2="194.14" y2="97.21"/><line class="cls-18" x1="197.36" y1="95.53" x2="197.36" y2="96.75"/><line class="cls-18" x1="200.12" y1="94.58" x2="200.12" y2="95.8"/><line class="cls-18" x1="202.57" y1="93.32" x2="202.57" y2="94.54"/><line class="cls-18" x1="204.94" y1="90.94" x2="204.94" y2="92.17"/><line class="cls-18" x1="206.76" y1="88.14" x2="206.76" y2="89.8"/><line class="cls-18" x1="181.02" y1="87.19" x2="181.02" y2="89.11"/><line class="cls-18" x1="191.52" y1="95.59" x2="191.52" y2="96.81"/><line class="cls-18" x1="188.89" y1="94.78" x2="188.89" y2="96"/><line class="cls-18" x1="186.27" y1="93.22" x2="186.27" y2="94.77"/><line class="cls-18" x1="183.4" y1="91.04" x2="183.4" y2="92.59"/><circle class="cls-19" cx="193.95" cy="81.6" r="14.63"/><circle class="cls-1" cx="193.95" cy="81.6" r="10.56"/><path class="cls-6" d="M204.51,82.08a10.57,10.57,0,0,1-21.13,0c0-.11,0-.21,0-.31a10.56,10.56,0,0,0,21.11,0C204.51,81.87,204.51,82,204.51,82.08Z"/><path class="cls-17" d="M183.38,81.54a10.57,10.57,0,0,1,21.13,0c0,.1,0,.2,0,.31a10.56,10.56,0,0,0-21.11,0C183.38,81.74,183.38,81.64,183.38,81.54Z"/><g id="LbQzAp"><path class="cls-1" d="M198.39,69c.76.62,1.52,1.22,2.27,1.85a.37.37,0,0,0,.57,0c.73-.59,1.47-1.17,2.25-1.72l-2,2.51,2,2.49,0,.06-2.53-2-2.75,2.21c.66-.82,1.26-1.6,1.9-2.35a.53.53,0,0,0,0-.82c-.6-.7-1.17-1.43-1.75-2.14Z"/></g><circle class="cls-15" cx="173.58" cy="58.8" r="13.12"/><path class="cls-17" d="M182.58,58.12a2.72,2.72,0,0,1,0,.28,9,9,0,0,0-18,0v-.28a9,9,0,0,1,18,0Z"/><line class="cls-20" x1="173.74" y1="70.26" x2="173.74" y2="71.55"/><line class="cls-20" x1="176.48" y1="70.12" x2="176.48" y2="71.16"/><line class="cls-20" x1="178.84" y1="69.31" x2="178.84" y2="70.35"/><line class="cls-20" x1="180.92" y1="68.24" x2="180.92" y2="69.28"/><line class="cls-20" x1="182.94" y1="66.22" x2="182.94" y2="67.26"/><line class="cls-20" x1="184.49" y1="63.82" x2="184.49" y2="65.24"/><line class="cls-20" x1="162.56" y1="63.01" x2="162.56" y2="64.65"/><line class="cls-20" x1="171.51" y1="70.17" x2="171.51" y2="71.21"/><line class="cls-20" x1="169.27" y1="69.48" x2="169.27" y2="70.53"/><line class="cls-20" x1="167.03" y1="68.15" x2="167.03" y2="69.47"/><line class="cls-20" x1="164.59" y1="66.3" x2="164.59" y2="67.62"/><circle class="cls-19" cx="173.58" cy="58.26" r="12.47"/><circle class="cls-1" cx="173.58" cy="58.26" r="9"/><path class="cls-6" d="M182.58,58.66a9,9,0,0,1-18,0V58.4a9,9,0,0,0,18,0A2.26,2.26,0,0,1,182.58,58.66Z"/><g id="LbQzAp-2" data-name="LbQzAp"><path class="cls-1" d="M167,64.61c.24.8.49,1.59.72,2.39a.32.32,0,0,0,.4.28c.8-.07,1.6-.13,2.41-.14l-2.61.81.23,2.73h0l-.82-2.62-3,.24c.85-.27,1.65-.53,2.46-.75.34-.09.41-.26.38-.58-.09-.79-.14-1.57-.21-2.35Z"/></g><circle class="cls-15" cx="146.79" cy="48.19" r="12.32"/><path class="cls-17" d="M155.24,47.56v.25a8.45,8.45,0,0,0-16.9,0,2.09,2.09,0,0,1,0-.25,8.46,8.46,0,1,1,16.91,0Z"/><line class="cls-21" x1="146.94" y1="58.96" x2="146.94" y2="60.18"/><line class="cls-21" x1="149.51" y1="58.83" x2="149.51" y2="59.81"/><line class="cls-21" x1="151.73" y1="58.07" x2="151.73" y2="59.05"/><line class="cls-21" x1="153.69" y1="57.06" x2="153.69" y2="58.04"/><line class="cls-21" x1="155.59" y1="55.16" x2="155.59" y2="56.14"/><line class="cls-21" x1="157.04" y1="52.91" x2="157.04" y2="54.24"/><line class="cls-21" x1="136.44" y1="52.16" x2="136.44" y2="53.69"/><line class="cls-21" x1="144.84" y1="58.88" x2="144.84" y2="59.86"/><line class="cls-21" x1="142.74" y1="58.23" x2="142.74" y2="59.21"/><line class="cls-21" x1="140.64" y1="56.98" x2="140.64" y2="58.22"/><line class="cls-21" x1="138.34" y1="55.24" x2="138.34" y2="56.48"/><circle class="cls-19" cx="146.79" cy="47.68" r="11.71"/><circle class="cls-1" cx="146.79" cy="47.68" r="8.46"/><path class="cls-6" d="M155.24,48.07a8.46,8.46,0,0,1-16.91,0,2.26,2.26,0,0,1,0-.26,8.45,8.45,0,0,0,16.9,0Z"/><path class="cls-17" d="M138.23,47.75a8.65,8.65,0,0,1,17.3,0,2.26,2.26,0,0,1,0,.26,8.64,8.64,0,0,0-17.28,0A2.26,2.26,0,0,1,138.23,47.75Z"/><path class="cls-17" d="M164.46,58.34a9.21,9.21,0,0,1,18.41,0,2.72,2.72,0,0,1,0,.28,9.2,9.2,0,0,0-18.39,0A2.72,2.72,0,0,1,164.46,58.34Z"/><g id="LbQzAp-3" data-name="LbQzAp"><path class="cls-1" d="M177.18,47.55c.64.53,1.29,1,1.93,1.58a.32.32,0,0,0,.49,0c.62-.51,1.25-1,1.91-1.47l-1.7,2.14,1.72,2.13,0,0-2.16-1.71L177,52.13c.56-.7,1.07-1.36,1.62-2a.44.44,0,0,0,0-.69c-.5-.6-1-1.22-1.48-1.83Z"/></g><g id="LbQzAp-4" data-name="LbQzAp"><path class="cls-1" d="M149.59,36.55,151.4,38a.3.3,0,0,0,.46,0q.87-.72,1.8-1.38l-1.6,2,1.62,2,0,.05-2-1.62-2.2,1.77c.53-.66,1-1.28,1.52-1.88.22-.25.18-.42,0-.66-.48-.56-.94-1.14-1.4-1.71Z"/></g><rect class="cls-22" width="313" height="155.29"/><circle class="cls-23" cx="194" cy="82.12" r="6.5"/><circle class="cls-23" cx="173.51" cy="58.63" r="5.72"/><circle class="cls-23" cx="146.71" cy="47.97" r="4.75"/></svg>