<svg xmlns="http://www.w3.org/2000/svg" xmlns:xlink="http://www.w3.org/1999/xlink" width="312" height="156" viewBox="0 0 312 156">
    <defs>
        <path id="qexafu5rje" d="M13.561.177c-1.856.385-3.795 1.26-5.573 1.97-1.842.736-5.203 2.119-7.271 3.314-.716.414-.846.584-.608 1.353.177.571.52 1.416.802 1.961.474.92 1.42.72 2.297.67 2.029-.115 6.588-.684 11.174-2.066 4.134-1.247 7.951-3.149 9.407-4.407.596-.515 1.86-1.37.888-1.658C23.11.851 20.882.546 18.857.272 17.84.134 16.672 0 15.542 0c-.689 0-1.362.05-1.98.177"/>
        <path id="mso5y0bu3h" d="M128.922.033c-2.359.031-26.853.841-49.385 1.89C60.77 2.797 41.967 3.9 23.23 5.282c-4.657.343-18.695 1.633-20.908 1.886-.76.087-3.167.53-2.013 1.604.753.701 2.081.929 3.057 1.124 1.711.342 3.484.504 5.236.489 4.506-.04 8.725-1.056 13.159-1.748 4.536-.708 11.499-1.623 16.064-2.047 9.672-.896 79.209-5.586 93.586-5.81 1.896-.03 4.616-.14 3.894-.53-.375-.203-1.99-.25-3.546-.25-1.152 0-2.272.026-2.836.033"/>
        <path id="oa5zy5k8lj" d="M14.689.09c1.556-.229 2.324.001 3.405.425 1.822.714 4.925 2.022 6.673 2.917.941.481-1.151 3.691-1.61 4.19-.485.527-1.492.574-2.249.583-.142.002-.36.003-.638.003h-.296c-.973 0-2.458-.007-3.971-.014l-.491-.003c-1.637-.007-3.246-.015-4.215-.016h-.406c-1.877-.002-3.368-.037-5.002-.948-1.633-.912-3.246-1.9-4.823-2.894C.731 4.121-.21 3.661.042 3.128c.157-.331 1.86-.694 2.318-.785"/>
        <path id="kvv9qswyrm" d="M.17 0c.227 0 .227.352 0 .352"/>
        <path id="9ow6b58jzo" d="M.17 0c.227 0 .227.352 0 .352"/>
        <path id="36ssjksglq" d="M.104.704C.054.817.004.9 0 1.012c.95 1.218 2.885 2.346 3.963 3.08 6.68 4.548 12.656 9.633 18.693 16.137 3.099 3.338 7.36 8.66 10.24 12.353 1.025 1.317 1.176 1.943 2.953 1.868.94-.039 3.102-.272 3.803-.454-.201-.303-.37-.56-.481-.722-3.075-4.514-8.307-11.044-14.4-17.019C19.45 11.036 7.176 1.791 1.963.065 1.828.022 1.675 0 1.514 0 .947 0 .296.267.104.704"/>
        <path id="cdmzf1kget" d="M42.242.824C35.105 1.831 27.05 4.57 21.972 6.648c-6.86 2.809-13.47 6.147-19.894 9.833-.514.296-2.733 1.65-1.888 2.187.4.254 1.918.358 2.568.425.955.098 10.473.645 14.285.5 1.595-.06 62.105-2.006 70.66-2.932 3.83-.414 7.774-.758 11.488-1.849 1.928-.566 7.439-2.944 8.419-3.617.771-.53 1.54-1.213.543-1.623-6.32-2.603-13.68-5.364-20.935-6.782C79.857 1.35 72.445.712 64.953.302 61.707.124 58.448 0 55.193 0c-4.332 0-8.66.22-12.95.824"/>
        <path id="bcixr2u4ww" d="M.231 8.66c-.211.124-.273.251-.204.426.287.75.75 1.378 1.152 2.067.515.882.523 1.772.51 2.734.848-.029 2.045-.07 3.529-.119-.334-.79-.68-1.574-1.032-2.355-.328-.728-1.519-3.11-.988-3.403 1.385-.763 2.464 2.569 2.842 3.419.336.758.647 1.523.98 2.28 6.314-.215 16.27-.556 26.506-.937.044-.916.088-1.83.134-2.746.007-.161-.14-.42-.448-.463-.942-.133-2.152-.785-2.021-1.84.132-1.061.377-2.107.605-3.15.194-.889.317-1.964.97-2.654.723-.763 2.098-.768 3.069-.796.259-.008.301-.064.328-.264.005-.039.037-.328.042-.397.028-.316-.069-.424-.245-.435-.06-.003-.196-.01-.222-.01C35.203.005 34.668 0 34.133 0 22.313 0 10.461 2.684.231 8.66"/>
        <path id="usw5gx4sbz" d="M1.293.057C.683.25.69.63.598 1.285.42 2.535.092 9.476 0 12.317c12.71-.503 24.13-1.026 27.499-1.39 2.709-.294 5.474-.552 8.176-1.064.009-.06.022-.118.035-.175.1-.408 1.64-3.07.972-3.265C30.874 3.589 24.444 2.209 18.1 1.205 14.7.668 11.27.32 7.83.166 6.686.116 3.985 0 2.423 0c-.578 0-1 .016-1.13.057"/>
        <path id="bep9p9hyuC" d="M2.208.902C1.105.932 0 .595 0 .595c.813 1.772 4.152 2.453 5.898 2.633C8.17 3.463 8.618 1.78 8.533 0c0 0-4.296.848-6.325.902"/>
        <path id="6c9z4uxe5F" d="M3.801 1.238c.262 1.176-.511 2.204-1.378 2.81-.76.531-2.69.935-2.392 1.758.266.737.707 1.585 1.195 2.16.653.771.783.83 1.32-.047 1.42-2.317 3.985-3.842 3.361-5.678C5.663 1.524 4.344.005 3.499 0h-.001c-.34 0 .171.644.303 1.238"/>
        <path id="tp434nmouI" d="M2.89 3.038c.053 1.014.797 2.28 1.051 3.234.253.945-.067 1.733-.303 2.632-.56 2.154 1.046 4.188.582 6.296-.19.862-.825 1.588-1.794 1.473-.993-.118-2.337-2.337-2.425-.648-.058 1.136 1.83 1.903 3.156 1.931 1.43-.882 2.271-2.398 2.012-4.469-.24-1.906-.483-3.708-.413-5.641.074-2.036.335-4.059.62-6.076-.096-.221-.198-.433-.295-.633C4.675.314 4.324 0 4.029 0 3.237 0 2.848 2.266 2.89 3.038"/>
        <path id="lo5w1ucqgL" d="M.397 3.322c-.482 1.793-.867 5.973.997 6.938 2.044 1.058 5.442 1.126 6.094-1.552.352-1.445.251-3.039-.096-4.473-.295-1.217-.834-2.449-1.716-3.378C5.101.252 4.486 0 3.883 0 2.31 0 .83 1.713.397 3.322"/>
        <path id="81ihcwom9O" d="M1.544 2.467c.165.738-.236 1.768.064 3.3.233 1.191.428 2.348.3 3.445-.122 1.049-.59 1.98-.434 1.93.76-.244 1.284-.94 1.51-1.873.352-1.446.251-3.04-.096-4.474-.173-.712-.426-1.5-.726-2.187C1.73 1.625 1.06.79.136.001L.1 0c-.514 0 1.105.953 1.444 2.467"/>
        <linearGradient id="miyw0oi3gf" x1="0%" x2="160.854%" y1="50.001%" y2="50.001%">
            <stop offset="0%" stop-color="#D8D8D8"/>
            <stop offset="100%" stop-color="#646464"/>
        </linearGradient>
        <linearGradient id="renbjg0iwk" x1="0%" x2="100%" y1="50%" y2="50%">
            <stop offset="0%" stop-color="#085608"/>
            <stop offset="100%" stop-color="#5B3123"/>
        </linearGradient>
        <linearGradient id="4lof54y65r" x1="0%" x2="129.84%" y1="50%" y2="50%">
            <stop offset="0%" stop-color="#8AAF8A"/>
            <stop offset="100%" stop-color="#669766"/>
        </linearGradient>
        <linearGradient id="hh0mwxmtqu" x1="0%" x2="100%" y1="50%" y2="50%">
            <stop offset="0%" stop-color="#2F722F"/>
            <stop offset="100%" stop-color="#598E59"/>
        </linearGradient>
        <linearGradient id="mveat6s83x" x1="-15.629%" x2="214.766%" y1="54.477%" y2="43.062%">
            <stop offset="0%" stop-color="#95B695"/>
            <stop offset="100%" stop-color="#508750"/>
        </linearGradient>
        <linearGradient id="q72m9l0lqA" x1="-132.313%" x2="94.083%" y1="56.83%" y2="47.053%">
            <stop offset="0%" stop-color="#95B695"/>
            <stop offset="100%" stop-color="#508750"/>
        </linearGradient>
        <linearGradient id="6telf5s4iD" x1="-.001%" x2="259.194%" y1="49.999%" y2="49.999%">
            <stop offset="0%" stop-color="#669766"/>
            <stop offset="100%" stop-color="#468046"/>
        </linearGradient>
        <linearGradient id="a5jhrs72wG" x1="55.216%" x2="44.952%" y1="85.565%" y2="12.839%">
            <stop offset="0%" stop-color="#FBFBFB"/>
            <stop offset="100%" stop-color="#FFF"/>
        </linearGradient>
        <linearGradient id="b3kng4kq8J" x1="38.484%" x2="58.421%" y1="20.855%" y2="69.294%">
            <stop offset="0%" stop-color="#FBFBFB"/>
            <stop offset="100%" stop-color="#F7F7F7"/>
        </linearGradient>
        <linearGradient id="hdxzn016xM" x1="69.628%" x2="35.021%" y1="95.782%" y2="25.809%">
            <stop offset="0%" stop-color="#FBFBFB"/>
            <stop offset="100%" stop-color="#FFF"/>
        </linearGradient>
        <linearGradient id="a93nwl2s4P" x1="41.098%" x2="53.874%" y1="-5.074%" y2="85.3%">
            <stop offset="0%" stop-color="#FBFBFB"/>
            <stop offset="100%" stop-color="#F7F7F7"/>
        </linearGradient>
        <rect id="yedxjfrlsa" width="312" height="156" x="0" y="0" rx="8"/>
        <rect id="ln051vojzc" width="312" height="156" x="0" y="0" rx="8"/>
    </defs>
    <g fill="none" fill-rule="evenodd">
        <g>
            <g>
                <g transform="translate(-24 -1005) translate(0 605) translate(24 400)">
                    <mask id="mpxru566nb" fill="#fff">
                        <use xlink:href="#yedxjfrlsa"/>
                    </mask>
                    <use fill="#F5F5F5" xlink:href="#yedxjfrlsa"/>
                    <g mask="url(#mpxru566nb)">
                        <mask id="3iv8o7h8fd" fill="#fff">
                            <use xlink:href="#ln051vojzc"/>
                        </mask>
                        <g mask="url(#3iv8o7h8fd)">
                            <g>
                                <g>
                                    <path fill="#242424" d="M60.102 60.306c.112-2.328.116-4.808-.004-7.452-.514-11.35-9.476-20.572-21.166-20.572s-21.166 9.21-21.166 20.572c0 2.586.137 5.074.394 7.452h41.942zM189.967 59.267c.009-1.595-.014-2.877-.323-5.076-1.664-11.82-7.724-20.652-21.076-21.615-12.574-.907-21.554 9.686-22.01 21.615-.085 2.224.079 4.26.454 6.115H165.4c12.181 0 24.566-1.039 24.566-1.039" transform="translate(51 74) translate(0 18.476)"/>
                                    <path fill="#10A310" d="M211.42 38.67c-.706-.576-3.377-3.126-3.725-4.442-.38-1.44-.538-2.93-.797-4.393-.1-.57-.325-1.174-.053-1.718.342-.686 1.92-3.177 2.043-3.858.134-.742-.01-1.5-.054-2.244-.042-.727-.006-1.46.128-2.176.172-.924.79-2.15-.537-2.17-.726-.01-5.362-.021-6.945-.117-3.17-.192-6.305-.615-9.39-1.384-2.972-.74-5.803-1.87-8.618-3.061-2.908-1.23-15.561-5.79-16.932-6.24-12.013-3.942-23.238-5.435-37.266-6.58-7.313-.598-21.908-.21-28.672.695-6.916.925-14.004 3.183-17.973 4.89-2.923 1.259-17.887 7.834-24.61 12.108-1.345.855-2.722 1.68-4.12 2.444-.417.228-2.11.327-3.255.382h.002c-.204.696-.698 1.633-1.148 2.46-.85 1.565-1.464 1.372-3.118 1.576-4.642.574-11.39 1.498-15.842 2.443-8.672 1.841-16.1 4.361-23.428 7.76-1.183.548-3.144 1.63-4.675 1.82.188.3.16.619.106 1.045-.353 2.828-.691 5.633-.986 8.469C1.315 48.693.76 54.65.55 54.98c-.332.521-.657 1.084-.514 1.778.19.928 1.293 2.183 2.28 2.552 2.381.892 13.402 1.744 19.48 1.972.485.018.69-.264.587-.656-1.763-6.714-1.227-12.835 2.146-17.797 2.703-3.976 7.345-7.004 13.174-7.32 7.823-.425 15.693 4.277 18.42 13.342.97 3.225 1.014 8.084.838 11.454h94.187c.009-.262-.025-.532-.033-.705-.448-9.423 1.315-13.134 3.755-16.359 2.404-3.176 6.247-6.846 14.802-6.631 9.257.233 13.937 7.63 14.976 10.018 2.08 4.777 2.264 8.834 2.404 10.66.034.44.011 1.473.246 1.778.393.512 1.846.288 2.525.216 4.108-.439 8.19-1.103 12.231-1.955 2.18-.459 5.119-1.187 6.486-1.783.93-.406 2.403-2.202 2.55-3.645.224-2.196.779-8.724.911-12.325.017-.483-.312-.685-.58-.904" transform="translate(51 74) translate(0 18.476)"/>
                                    <path fill="#656565" d="M38.755 10.455L38.29 10.202 29.656 26.089 30.121 26.342z" transform="translate(51 74) translate(0 18.476)"/>
                                    <path fill="#4B4B4B" d="M53.682 54.191c0 8.16-6.604 14.776-14.75 14.776s-14.75-6.615-14.75-14.776c0-8.16 6.604-14.776 14.75-14.776s14.75 6.616 14.75 14.776" transform="translate(51 74) translate(0 18.476)"/>
                                    <path fill="#969696" d="M49.995 54.191c0 6.12-4.953 11.082-11.063 11.082S27.87 60.312 27.87 54.191c0-6.12 4.953-11.082 11.062-11.082 6.11 0 11.063 4.962 11.063 11.082" transform="translate(51 74) translate(0 18.476)"/>
                                    <path fill="#4B4B4B" d="M183.318 54.191c0 8.16-6.604 14.776-14.75 14.776s-14.75-6.615-14.75-14.776c0-8.16 6.604-14.776 14.75-14.776s14.75 6.616 14.75 14.776" transform="translate(51 74) translate(0 18.476)"/>
                                    <path fill="#969696" d="M179.63 54.191c0 6.12-4.952 11.082-11.062 11.082-6.11 0-11.063-4.961-11.063-11.082 0-6.12 4.953-11.082 11.063-11.082s11.062 4.962 11.062 11.082" transform="translate(51 74) translate(0 18.476)"/>
                                    <path fill="#DE4E77" d="M211.802 45.15c0-.18-.173-.274-.36-.274-3.07 0-6.136-.02-9.202.121-.2.01-.44.22-.31.562.21.552.553 1.006 1.127 1.223.76.288 1.728.325 2.528.337 1.944.032 3.837 0 5.783 0 .287 0 .307-.202.331-.39.027-.214.102-1.033.103-1.58" transform="translate(51 74) translate(0 18.476)"/>
                                </g>
                                <g transform="translate(51 74) translate(4.62 49.66)">
                                    <mask id="q0k9j040fg" fill="#fff">
                                        <use xlink:href="#qexafu5rje"/>
                                    </mask>
                                    <path fill="url(#miyw0oi3gf)" d="M13.561.177c-1.856.385-3.795 1.26-5.573 1.97-1.842.736-5.203 2.119-7.271 3.314-.716.414-.846.584-.608 1.353.177.571.52 1.416.802 1.961.474.92 1.42.72 2.297.67 2.029-.115 6.588-.684 11.174-2.066 4.134-1.247 7.951-3.149 9.407-4.407.596-.515 1.86-1.37.888-1.658C23.11.851 20.882.546 18.857.272 17.84.134 16.672 0 15.542 0c-.689 0-1.362.05-1.98.177" mask="url(#q0k9j040fg)"/>
                                </g>
                                <g>
                                    <path fill="#2C2C2C" d="M9.213 4.946c-.475-1.058-.974-2.103-1.452-3.158C7.477 1.163 7.099.392 6.553.245 5.957.085 3.696-.299 3.96.43c.096.265 1.05 2.225 1.285 2.785.603 1.438 1.452 3.071 1.73 4.626.39 2.181-.486 2.784-2.12 3.243-1.105.312-2.239.606-3.346.91-1.007.275-1.961.376-1.278.918.428.34 1.145.376 1.785.215 1.476-.37 6.892-1.197 7.84-2.601 1.222-1.809.113-3.897-.643-5.58" transform="translate(51 74) translate(3.806 64.1)"/>
                                    <path fill="#0B7A07" d="M140.446 3.34c-.177-.773-5.333-1.2-6.668-1.304C116.73.71 81.864 2.006 63.55 3.807c-.866.086-3.257.348-3.89 1.079-.702.81 1.656 1.066 2.92 1.066 11.23 0 68.705-1.225 71.737-1.236 1.533-.005 6.382-.266 6.128-1.377" transform="translate(51 74) translate(3.806 64.1)"/>
                                </g>
                                <g transform="translate(51 74) translate(50.022 41.641)">
                                    <mask id="slnu8z7bgi" fill="#fff">
                                        <use xlink:href="#mso5y0bu3h"/>
                                    </mask>
                                    <path fill="#0B7A07" d="M128.922.033c-2.359.031-26.853.841-49.385 1.89C60.77 2.797 41.967 3.9 23.23 5.282c-4.657.343-18.695 1.633-20.908 1.886-.76.087-3.167.53-2.013 1.604.753.701 2.081.929 3.057 1.124 1.711.342 3.484.504 5.236.489 4.506-.04 8.725-1.056 13.159-1.748 4.536-.708 11.499-1.623 16.064-2.047 9.672-.896 79.209-5.586 93.586-5.81 1.896-.03 4.616-.14 3.894-.53-.375-.203-1.99-.25-3.546-.25-1.152 0-2.272.026-2.836.033" mask="url(#slnu8z7bgi)"/>
                                </g>
                                <g>
                                    <path fill="#D93664" d="M207.238 37.02c-1.748-.895-4.851-2.203-6.673-2.917-1.08-.424-1.85-.654-3.405-.425-4.114.606-8.249 1.442-12.33 2.253-.458.091-2.16.453-2.317.785-.252.533.688.993 1.024 1.205 1.577.995 3.19 1.982 4.823 2.893 1.692.944 3.23.948 5.201.948 2.175 0 8.633.045 9.818.031.757-.01 1.764-.057 2.25-.584.457-.498 2.55-3.708 1.609-4.19" transform="translate(51 74) translate(1.757 5.055)"/>
                                    <path fill="#296D29" d="M60.402 69.71c-.082 0-.156-.058-.173-.142-.792-3.904-2.049-11.64-2.051-15.775-.003-5.49.796-13.859 2.329-19.234.027-.094.125-.147.218-.121.093.027.148.125.12.218-1.523 5.344-2.318 13.672-2.314 19.137.002 4.109 1.255 11.814 2.044 15.705.02.096-.042.19-.138.208-.011.003-.023.004-.035.004M113.29 69.71c-.072 0-.14-.045-.166-.118-.841-2.394-1.217-5.067-1.218-8.665l-.003-2.807c-.002-2.171-.005-4.416.003-6.536.018-4.794.684-9.288 1.39-14.045.2-1.345.406-2.735.594-4.12.013-.097.102-.163.199-.151.096.013.164.102.151.199-.188 1.387-.395 2.779-.595 4.124-.704 4.745-1.369 9.225-1.386 13.994-.008 2.119-.005 4.364-.003 6.534l.003 2.808c0 3.557.37 6.193 1.198 8.548.032.092-.016.193-.108.225-.02.007-.039.01-.059.01" transform="translate(51 74) translate(1.757 5.055)"/>
                                    <path fill="#296D29" d="M139.778 69.71h-84.42c-.097 0-.176-.08-.176-.177 0-.097.079-.176.177-.176h84.42c2.684 0 4.858-2.26 5.62-4.494 1.672-4.91 3.21-7.687 5.877-10.615.929-1.019 2.026-1.998 3.086-2.946 2.107-1.882 4.286-3.829 5.299-6.208.812-1.908 2.715-5.07 4.555-8.129 1.95-3.242 3.967-6.594 4.13-7.62.224-1.402-.57-3.195-2.066-3.528-.096-.021-.155-.116-.135-.21.022-.096.114-.156.21-.135 1.688.375 2.588 2.371 2.34 3.928-.174 1.095-2.118 4.326-4.177 7.747-1.834 3.048-3.73 6.2-4.533 8.086-1.043 2.451-3.252 4.425-5.388 6.333-1.054.941-2.144 1.915-3.06 2.92-2.63 2.888-4.15 5.633-5.805 10.492-.776 2.279-2.97 4.732-5.954 4.732M172.555 35.423c-1.98 0-3.592 1.614-3.592 3.598 0 1.985 1.611 3.6 3.592 3.6s3.593-1.615 3.593-3.6c0-1.984-1.612-3.598-3.593-3.598m0 7.55c-2.175 0-3.945-1.772-3.945-3.952 0-2.179 1.77-3.952 3.945-3.952 2.176 0 3.946 1.773 3.946 3.952 0 2.18-1.77 3.953-3.946 3.953M100.623 43.638c-.737 0-1.52-.083-2.032-.58-.07-.067-.071-.179-.003-.25.067-.069.18-.07.25-.003.538.524 1.54.493 2.345.469.14-.004.273-.009.396-.01l.438-.002c.893-.006 1.736-.01 2.613-.066.202-.013.441-.02.706-.029 1.517-.048 4.056-.128 4.447-1.546.026-.094.123-.149.217-.123.094.026.15.123.123.217-.46 1.669-3.058 1.75-4.776 1.805-.26.008-.496.016-.695.028-.886.057-1.735.062-2.633.067l-.437.003c-.12 0-.251.005-.388.009-.183.006-.375.011-.571.011" transform="translate(51 74) translate(1.757 5.055)"/>
                                    <path fill="#296D29" d="M151.005 41.53c-1.522 0-3.001-.206-3.424-1.1-.041-.087-.004-.193.084-.234.088-.042.194-.005.235.084.526 1.112 3.47.92 5.227.806l.503-.032.224-.013c1.292-.072 4.318-.24 5.082-1.16.129-.156.18-.322.156-.51-.013-.096.056-.185.152-.197.099-.012.185.056.198.152.036.286-.043.549-.235.78-.862 1.039-3.882 1.207-5.334 1.288l-.222.013-.5.031c-.647.043-1.402.092-2.146.092" transform="translate(51 74) translate(1.757 5.055)"/>
                                    <path fill="#E67C9A" d="M200.7 38.862c-1.51.035-2.07-.092-3.4.795-1.088.726-1.774 1.285.048 1.318 1.588.028 5.567-.032 8.52-.07.338-.467.869-1.3 1.227-2.082-1.695-.028-4.669-.002-6.396.039" transform="translate(51 74) translate(1.757 5.055)"/>
                                    <path fill="#296D29" d="M5.156 54.279c-.602 0-1.187-.136-1.54-.818-.044-.086-.01-.193.077-.238.086-.044.193-.01.237.076.365.707 1.037.656 1.813.597.106-.009.212-.017.317-.022 1.968-.112 6.526-.67 11.134-2.06 4.274-1.288 8.003-3.213 9.342-4.37.085-.074.183-.154.286-.238.328-.267.938-.765.896-.976-.01-.05-.095-.102-.228-.141-1.565-.463-3.812-.768-5.794-1.037-1.703-.231-3.658-.424-5.236-.096-.095.019-.189-.042-.209-.138-.02-.095.042-.189.137-.209 1.63-.337 3.622-.142 5.356.093 1.994.27 4.255.578 5.846 1.048.276.082.435.22.473.41.085.42-.476.878-1.018 1.32-.1.082-.196.16-.278.231-1.401 1.21-5.104 3.125-9.472 4.442-4.639 1.399-9.232 1.961-11.215 2.073-.102.006-.206.014-.31.022-.2.015-.408.031-.614.031" transform="translate(51 74) translate(1.757 5.055)"/>
                                    <path fill="#EBEBEB" d="M36.574 62.57c.025.087.053.176.08.264.096.31.24.778.143.886-.065.072-.06.184.012.25.034.03.077.045.119.045.048 0 .096-.02.13-.058.233-.257.087-.728-.067-1.227-.027-.087-.054-.173-.078-.259-.042-.143-.116-.378-.21-.668-.335-1.052-1.121-3.517-.943-3.952.086-.212 1.457-.341 2.444-.23.097.01.184-.06.195-.156.01-.097-.06-.185-.156-.196-.025-.002-2.538-.215-2.81.448-.189.462.218 1.947.935 4.194.091.286.165.517.206.659" transform="translate(51 74) translate(1.757 5.055)"/>
                                    <path fill="#EBEBEB" d="M29.752 63.347c1.477.71 5.59 2.092 6.814 2.498.338.112.631.168.884.168.263 0 .481-.06.66-.18.29-.198.455-.547.486-1.04.006-.098-.067-.182-.165-.188-.102-.007-.18.068-.187.165-.024.378-.136.637-.332.77-.25.169-.665.159-1.235-.03-.478-.159-1.4-.467-2.431-.826.604-.027 1.125-.187 1.46-.477.38-.327.522-.796.413-1.354-.019-.096-.111-.16-.207-.14-.096.019-.158.112-.14.208.086.433-.014.775-.296 1.018-.57.493-1.812.538-3.02.109-1.032-.377-1.988-.749-2.55-1.02-.4-.192-.392-.451-.3-1.411l.012-.127c.09-.947 2.95-2.95 4.567-3.395.094-.026.15-.123.123-.217-.026-.094-.124-.15-.217-.123-1.606.442-4.712 2.517-4.824 3.702l-.012.126c-.09.94-.14 1.457.497 1.764" transform="translate(51 74) translate(1.757 5.055)"/>
                                    <path fill="#EBEBEB" d="M37.582 64.932c0 .069-.056.125-.124.125s-.124-.056-.124-.125c0-.068.056-.124.124-.124s.124.056.124.124m-.6 0c0 .264.213.478.476.478s.477-.214.477-.478c0-.263-.214-.477-.477-.477s-.477.214-.477.477M31.494 66.724c.3-.004.543-.008.69-.005h.276c.322-.002.813-.004.887.121.033.055.092.086.152.086.03 0 .062-.008.09-.025.084-.05.111-.159.061-.242-.177-.298-.67-.297-1.192-.293h-.269c-.15-.003-.395 0-.7.004-1.102.016-3.684.05-4.048-.247-.177-.145.1-1.496.493-2.41.038-.089-.003-.193-.092-.231-.09-.04-.193.002-.232.092-.01.023-.946 2.37-.392 2.823.386.315 1.922.358 4.276.327" transform="translate(51 74) translate(1.757 5.055)"/>
                                    <path fill="#EBEBEB" d="M30.937 73.482c1.108-1.206 3.627-4.745 4.373-5.801.418-.593.561-1.078.437-1.483-.103-.336-.39-.595-.85-.769-.092-.035-.193.012-.228.103-.034.092.012.193.103.228.354.133.569.316.638.542.089.29-.042.684-.388 1.175-.291.412-.854 1.205-1.496 2.087.15-.586.147-1.132-.031-1.537-.202-.459-.608-.732-1.173-.79-.096-.008-.184.06-.194.158-.01.097.06.184.158.194.438.045.736.24.886.58.305.691-.015 1.895-.777 2.926v.001c-.662.88-1.295 1.687-1.717 2.146-.3.327-.546.244-1.436-.124l-.117-.049c-.878-.362-1.956-3.686-1.91-5.366.003-.097-.074-.178-.171-.181h-.005c-.096 0-.174.076-.177.172-.046 1.668 1.03 5.25 2.129 5.702l.116.048c.492.204.859.355 1.171.355.242 0 .45-.09.66-.317" transform="translate(51 74) translate(1.757 5.055)"/>
                                    <path fill="#EBEBEB" d="M34.58 66.524c.02-.065.089-.103.154-.083.065.02.102.09.082.155-.02.066-.09.102-.154.083-.065-.02-.102-.09-.083-.155m-.02.493c.046.014.093.02.14.02.077 0 .153-.018.223-.055.112-.06.195-.16.232-.283.037-.122.024-.25-.035-.363-.06-.113-.16-.195-.282-.233-.251-.075-.518.066-.595.318-.076.252.066.52.317.596M34.719 72.056l.09-.261c.103-.307.259-.772.4-.802.096-.02.156-.114.136-.21-.02-.095-.116-.155-.21-.136-.337.072-.495.54-.66 1.035l-.088.256c-.05.14-.127.374-.22.664-.342 1.05-1.143 3.51-1.542 3.76-.193.121-1.38-.577-2.117-1.245-.072-.066-.183-.06-.249.012-.065.073-.06.184.013.25.016.015 1.558 1.34 2.314 1.34.087 0 .163-.018.226-.057.423-.265.96-1.708 1.69-3.95.093-.286.168-.517.217-.656" transform="translate(51 74) translate(1.757 5.055)"/>
                                    <path fill="#EBEBEB" d="M36.637 69.403c-.425-.587-.837-.88-1.26-.893-.348-.01-.687.177-1.001.559-.062.075-.05.187.024.249.076.062.187.05.249-.025.24-.292.48-.439.718-.43.301.01.633.261.984.748.296.408.862 1.196 1.488 2.089-.505-.33-1.02-.505-1.46-.464-.5.044-.888.34-1.126.858-.04.088-.001.193.087.234.089.04.193.002.234-.087.184-.4.465-.62.835-.653.754-.062 1.784.626 2.513 1.681l.001.001c.617.91 1.176 1.771 1.474 2.32.211.39.054.596-.581 1.321l-.084.095c-.625.717-4.115.666-5.686.08-.091-.034-.193.012-.227.104-.034.091.012.193.104.227.77.287 2.066.465 3.276.465 1.246 0 2.402-.189 2.798-.642l.084-.096c.621-.71.964-1.1.626-1.722-.782-1.441-3.313-4.971-4.07-6.019" transform="translate(51 74) translate(1.757 5.055)"/>
                                    <path fill="#EBEBEB" d="M35.28 69.55c.02-.027.048-.045.081-.05.007-.002.013-.002.02-.002.026 0 .051.008.072.023.027.02.045.048.05.081.005.033-.002.066-.022.092-.019.027-.048.045-.08.05-.032.005-.066-.002-.092-.021-.027-.02-.045-.048-.05-.081-.006-.033.002-.066.021-.092m-.178.46c.084.06.182.09.278.09.148 0 .295-.07.388-.199.153-.213.105-.512-.108-.666-.214-.154-.512-.105-.666.108-.153.214-.105.512.108.666M41.213 71.713c-.243-.176-.44-.317-.557-.407-.072-.055-.147-.11-.222-.165-.26-.191-.655-.481-.641-.626.01-.097-.061-.183-.158-.193-.1-.008-.184.062-.193.159-.034.345.363.637.783.946l.217.16c.119.091.318.235.565.413.895.645 2.992 2.155 3.108 2.612.056.221-.968 1.143-1.827 1.643-.084.049-.113.157-.064.241.033.056.092.088.153.088.03 0 .06-.008.089-.024.021-.013 2.167-1.341 1.99-2.035-.122-.484-1.331-1.435-3.243-2.812" transform="translate(51 74) translate(1.757 5.055)"/>
                                    <path fill="#EBEBEB" d="M47.188 67.841l-.065-.107c-.486-.81-.756-1.255-1.449-1.121-1.61.31-5.734 1.653-6.96 2.057-.687.227-1.09.532-1.231.931-.117.332-.04.71.227 1.126.053.081.162.105.244.052.082-.053.105-.162.052-.244-.205-.318-.27-.593-.19-.816.1-.286.44-.526 1.009-.713.478-.158 1.402-.46 2.442-.787-.468.382-.79.822-.888 1.254-.11.49.054.95.474 1.334.034.031.077.046.119.046.048 0 .096-.02.13-.057.066-.072.06-.184-.011-.25-.326-.297-.45-.632-.368-.995.166-.737 1.137-1.513 2.362-1.889h.001c1.053-.313 2.041-.584 2.655-.702.434-.085.582.129 1.08.956l.065.108c.49.815-.617 4.13-1.651 5.452-.06.076-.047.188.03.248.032.025.07.037.108.037.053 0 .105-.023.14-.067 1.027-1.314 2.289-4.834 1.675-5.853" transform="translate(51 74) translate(1.757 5.055)"/>
                                    <path fill="#EBEBEB" d="M38.467 69.836c.022-.017.048-.025.074-.025.038 0 .075.018.1.05.02.027.028.06.023.093-.005.032-.023.061-.05.081-.054.041-.132.03-.172-.025-.041-.056-.03-.134.025-.174m.075.577c.098 0 .198-.03.283-.094.102-.076.169-.187.187-.313.02-.126-.012-.252-.088-.355-.156-.211-.455-.256-.667-.099-.21.157-.255.456-.099.668.093.126.238.193.384.193M41.753 65.43l-.225.161c-.262.19-.66.475-.791.419-.09-.04-.193.002-.232.091-.04.09.001.194.09.233.057.024.116.035.177.035.283 0 .615-.24.963-.492.073-.053.147-.106.22-.156.122-.086.32-.231.564-.412.88-.649 2.928-2.16 3.423-2.16h.014c.228.014.788 1.274 1 2.246.02.096.113.156.209.136.095-.021.156-.115.135-.21-.005-.026-.608-2.48-1.321-2.525h-.028c-.515 0-1.779.854-3.641 2.229-.241.178-.436.321-.557.405" transform="translate(51 74) translate(1.757 5.055)"/>
                                    <path fill="#EBEBEB" d="M39.158 67.93c.175.135.39.202.645.202.151 0 .316-.024.494-.072.094-.025.15-.122.125-.216-.025-.094-.122-.15-.216-.125-.365.098-.646.075-.834-.07-.24-.183-.363-.58-.367-1.18-.003-.505-.006-1.478.004-2.57.219.563.537 1.006.918 1.232.204.12.422.181.646.181.25 0 .507-.075.767-.223.085-.048.114-.156.066-.241-.048-.085-.156-.115-.24-.066-.383.219-.74.234-1.06.044-.648-.384-1.087-1.549-1.067-2.832v-.002c.026-1.099.072-2.124.149-2.745.054-.44.301-.516 1.24-.736l.123-.028c.923-.219 3.733 1.857 4.67 3.25.055.08.165.101.245.047.081-.055.103-.165.048-.245-.932-1.384-3.888-3.667-5.044-3.397l-.123.03c-.917.214-1.423.333-1.51 1.036-.2 1.631-.192 5.974-.184 7.266.003.726.169 1.204.505 1.46" transform="translate(51 74) translate(1.757 5.055)"/>
                                    <path fill="#EBEBEB" d="M39.912 67.08c-.015.03-.04.052-.071.063-.065.02-.135-.014-.158-.078-.021-.065.014-.136.079-.158.012-.004.026-.006.04-.006.018 0 .037.004.054.012.03.015.052.04.062.072.01.031.009.065-.006.095m.1-.483c-.113-.057-.243-.065-.363-.025-.25.085-.383.356-.3.606.067.198.254.324.452.324.05 0 .102-.008.152-.025.121-.04.219-.126.275-.24.057-.115.065-.244.025-.365-.041-.12-.126-.219-.24-.275M166.21 62.57c.025.087.052.176.08.264.096.31.24.778.143.886-.066.072-.06.184.012.25.034.03.076.045.119.045.048 0 .095-.02.13-.058.233-.257.087-.728-.067-1.227-.027-.087-.054-.173-.078-.259-.042-.143-.117-.378-.21-.668-.335-1.052-1.122-3.517-.944-3.952.087-.212 1.457-.341 2.444-.23.1.01.185-.06.195-.156.011-.097-.058-.185-.155-.196-.025-.002-2.539-.215-2.81.448-.189.462.218 1.947.935 4.194.091.286.165.517.206.659" transform="translate(51 74) translate(1.757 5.055)"/>
                                    <path fill="#EBEBEB" d="M159.388 63.347c1.476.71 5.589 2.092 6.814 2.498.338.112.631.168.884.168.262 0 .48-.06.66-.18.29-.198.454-.547.486-1.04.006-.098-.068-.182-.165-.188-.102-.007-.181.068-.187.165-.024.378-.136.637-.332.77-.25.169-.665.159-1.235-.03-.479-.159-1.4-.467-2.432-.826.604-.027 1.126-.187 1.462-.477.379-.327.521-.796.412-1.354-.02-.096-.112-.16-.207-.14-.096.019-.158.112-.14.208.085.433-.014.775-.296 1.018-.57.493-1.813.538-3.02.109h-.001c-1.032-.377-1.987-.749-2.55-1.02-.399-.192-.392-.451-.3-1.411l.013-.127c.09-.947 2.95-2.95 4.567-3.395.094-.026.149-.123.123-.217-.026-.094-.125-.15-.217-.123-1.606.442-4.712 2.517-4.824 3.702l-.013.126c-.09.94-.14 1.457.498 1.764" transform="translate(51 74) translate(1.757 5.055)"/>
                                    <path fill="#EBEBEB" d="M167.218 64.932c0 .069-.056.125-.124.125s-.124-.056-.124-.125c0-.068.056-.124.124-.124s.124.056.124.124m-.6 0c0 .264.213.478.476.478.262 0 .477-.214.477-.478 0-.263-.215-.477-.477-.477-.263 0-.477.214-.477.477M161.13 66.724c.3-.004.542-.008.69-.005h.275c.323-.002.813-.004.888.121.033.055.091.086.152.086.03 0 .062-.008.09-.025.084-.05.11-.159.06-.242-.177-.298-.671-.297-1.191-.293h-.27c-.149-.003-.394 0-.7.004-1.101.016-3.684.05-4.047-.247-.177-.145.099-1.496.492-2.41.04-.089-.002-.193-.092-.231-.09-.04-.193.002-.231.092-.01.023-.947 2.37-.392 2.823.385.315 1.922.358 4.276.327" transform="translate(51 74) translate(1.757 5.055)"/>
                                    <path fill="#EBEBEB" d="M160.573 73.482c1.108-1.206 3.627-4.745 4.372-5.801.419-.593.562-1.078.438-1.483-.103-.336-.39-.595-.85-.769-.092-.035-.194.012-.228.103-.035.092.012.193.103.228.354.133.568.316.638.542.088.29-.042.684-.388 1.175-.292.412-.854 1.205-1.496 2.087.149-.586.147-1.132-.032-1.537-.202-.459-.608-.732-1.173-.79-.094-.008-.183.06-.193.158-.01.097.06.184.158.194.437.045.736.24.886.58.304.691-.015 1.895-.777 2.926v.001c-.662.88-1.295 1.687-1.717 2.146-.3.327-.546.244-1.436-.124l-.117-.049c-.878-.362-1.956-3.686-1.91-5.366.002-.097-.074-.178-.172-.181h-.005c-.095 0-.173.076-.176.172-.046 1.668 1.03 5.25 2.129 5.702l.116.048c.492.204.859.355 1.171.355.241 0 .45-.09.659-.317" transform="translate(51 74) translate(1.757 5.055)"/>
                                    <path fill="#EBEBEB" d="M164.215 66.524c.02-.065.09-.103.155-.083.065.02.102.09.082.155-.02.066-.09.102-.155.083-.065-.02-.102-.09-.082-.155m-.02.493c.046.014.093.02.14.02.076 0 .153-.018.223-.055.112-.06.194-.16.231-.283.038-.122.025-.25-.035-.363-.06-.113-.16-.195-.281-.233-.252-.075-.519.066-.595.318-.077.252.065.52.316.596M164.355 72.056l.09-.261c.103-.307.258-.772.4-.802.095-.02.156-.114.136-.21-.02-.095-.115-.155-.21-.136-.338.072-.495.54-.661 1.035l-.087.256c-.05.14-.127.374-.22.664-.343 1.05-1.143 3.51-1.542 3.76-.193.121-1.381-.577-2.117-1.245-.072-.066-.184-.06-.25.012-.065.073-.059.184.013.25.017.015 1.559 1.34 2.314 1.34.087 0 .164-.018.227-.057.423-.265.96-1.708 1.69-3.95.092-.286.167-.517.217-.656" transform="translate(51 74) translate(1.757 5.055)"/>
                                    <path fill="#EBEBEB" d="M166.273 69.403c-.425-.587-.837-.88-1.26-.893-.352-.01-.688.177-1.001.559-.062.075-.051.187.024.249s.186.05.248-.025c.24-.292.483-.439.718-.43.302.01.633.261.985.748.295.408.862 1.196 1.487 2.089-.505-.33-1.02-.505-1.46-.464-.499.044-.888.34-1.125.858-.04.088-.002.193.087.234.089.04.193.002.233-.087.185-.4.465-.62.836-.653.75-.062 1.784.626 2.513 1.681v.001c.618.91 1.176 1.771 1.474 2.32.212.39.055.596-.58 1.321l-.084.095c-.626.717-4.115.666-5.687.08-.09-.034-.192.012-.226.104-.034.091.012.193.103.227.77.287 2.066.465 3.277.465 1.246 0 2.402-.189 2.798-.642l.084-.096c.62-.71.963-1.1.626-1.722-.783-1.441-3.313-4.971-4.07-6.019" transform="translate(51 74) translate(1.757 5.055)"/>
                                    <path fill="#EBEBEB" d="M164.916 69.55c.02-.027.048-.045.08-.05.008-.002.014-.002.02-.002.027 0 .052.008.073.023.027.02.045.048.05.081.005.033-.002.066-.022.092-.02.027-.048.045-.08.05-.033.005-.066-.002-.093-.021-.026-.02-.044-.048-.05-.081-.005-.033.003-.066.022-.092m-.178.46c.084.06.181.09.278.09.148 0 .294-.07.387-.199.154-.213.106-.512-.108-.666-.213-.154-.511-.105-.665.108-.154.214-.105.512.108.666M170.849 71.713c-.244-.176-.44-.317-.558-.407l-.221-.165c-.261-.191-.656-.481-.641-.626.01-.097-.062-.183-.158-.193-.102-.008-.184.062-.193.159-.034.345.363.637.783.946l.216.16c.12.091.319.235.566.413.895.645 2.992 2.155 3.108 2.612.056.221-.968 1.143-1.827 1.643-.084.049-.113.157-.064.241.033.056.092.088.153.088.03 0 .06-.008.088-.024.022-.013 2.168-1.341 1.991-2.035-.122-.484-1.331-1.435-3.243-2.812" transform="translate(51 74) translate(1.757 5.055)"/>
                                    <path fill="#EBEBEB" d="M176.823 67.841l-.065-.107c-.486-.81-.755-1.255-1.448-1.121-1.61.31-5.734 1.653-6.96 2.057-.688.227-1.09.532-1.232.931-.116.332-.04.71.228 1.126.052.081.161.105.244.052.081-.053.105-.162.052-.244-.205-.318-.27-.593-.19-.816.1-.286.44-.526 1.009-.713.478-.158 1.401-.46 2.442-.787-.468.382-.791.822-.888 1.254-.11.49.054.95.474 1.334.034.031.076.046.119.046.048 0 .095-.02.13-.057.066-.072.06-.184-.011-.25-.326-.297-.45-.632-.368-.995.165-.737 1.137-1.513 2.362-1.889 1.053-.313 2.042-.584 2.655-.702.435-.085.583.129 1.08.956l.065.108c.491.815-.616 4.13-1.65 5.452-.06.076-.047.188.03.248.032.025.07.037.108.037.052 0 .104-.023.139-.067 1.028-1.314 2.29-4.834 1.675-5.853" transform="translate(51 74) translate(1.757 5.055)"/>
                                    <path fill="#EBEBEB" d="M168.103 69.836c.022-.017.048-.025.074-.025.038 0 .075.018.1.05.02.027.027.06.023.093-.005.032-.023.061-.05.081-.054.041-.132.03-.173-.025-.04-.056-.029-.134.026-.174m.074.577c.099 0 .198-.03.283-.094.103-.076.17-.187.188-.313.019-.126-.012-.252-.088-.355-.157-.211-.456-.256-.667-.099-.211.157-.255.456-.1.668.094.126.238.193.384.193M171.389 65.43c-.075.052-.15.107-.225.161-.263.19-.66.475-.791.419-.09-.04-.194.002-.233.091-.039.09.002.194.092.233.056.024.114.035.175.035.284 0 .616-.24.964-.492.073-.053.146-.106.22-.156.122-.086.32-.231.564-.412.888-.655 2.971-2.191 3.437-2.16.228.014.788 1.274.999 2.246.02.096.115.156.21.136.095-.021.155-.115.135-.21-.006-.026-.608-2.48-1.322-2.525-.494-.027-1.772.83-3.669 2.229-.24.178-.435.321-.556.405" transform="translate(51 74) translate(1.757 5.055)"/>
                                    <path fill="#EBEBEB" d="M168.794 67.93c.175.135.39.202.645.202.15 0 .316-.024.494-.072.094-.025.15-.122.125-.216-.025-.094-.122-.15-.217-.125-.365.098-.645.075-.833-.07-.24-.183-.364-.58-.367-1.18-.003-.505-.006-1.478.003-2.57.22.563.538 1.006.919 1.232.204.12.421.181.646.181.249 0 .507-.075.767-.223.084-.048.114-.156.065-.241-.048-.085-.156-.115-.24-.066-.383.219-.739.234-1.058.044-.65-.384-1.089-1.549-1.068-2.832v-.002c.026-1.099.072-2.124.148-2.745.055-.44.302-.516 1.24-.736l.123-.028c.926-.219 3.734 1.857 4.671 3.25.055.08.164.101.245.047.081-.055.102-.165.048-.245-.932-1.384-3.888-3.667-5.044-3.397l-.124.03c-.917.214-1.422.333-1.509 1.036-.2 1.631-.192 5.974-.185 7.266.004.726.17 1.204.506 1.46" transform="translate(51 74) translate(1.757 5.055)"/>
                                    <path fill="#EBEBEB" d="M169.548 67.08c-.015.03-.04.052-.072.063-.064.02-.135-.014-.157-.078-.021-.065.014-.136.078-.158.013-.004.027-.006.04-.006.019 0 .037.004.055.012.03.015.052.04.062.072.01.031.008.065-.006.095m.1-.483c-.114-.057-.243-.065-.364-.025-.249.085-.383.356-.299.606.067.198.253.324.452.324.05 0 .102-.008.152-.025.12-.04.218-.126.275-.24.056-.115.065-.244.024-.365-.04-.12-.126-.219-.24-.275" transform="translate(51 74) translate(1.757 5.055)"/>
                                    <g transform="translate(51 74) translate(1.757 5.055) translate(182.47 33.588)">
                                        <mask id="rjok3syml" fill="#fff">
                                            <use xlink:href="#oa5zy5k8lj"/>
                                        </mask>
                                        <path fill="url(#renbjg0iwk)" d="M24.767 3.432c-1.748-.895-4.851-2.203-6.673-2.917-1.08-.424-1.85-.654-3.405-.425-4.114.606-8.249 1.443-12.33 2.253-.457.091-2.16.454-2.317.785-.252.533.689.993 1.024 1.205 1.577.995 3.19 1.982 4.823 2.894 1.692.943 3.23.948 5.201.948 2.175 0 8.633.045 9.818.03.757-.009 1.764-.056 2.25-.584.458-.498 2.55-3.708 1.609-4.19" mask="url(#rjok3syml)"/>
                                    </g>
                                    <path fill="#FFF" d="M20.869 45.606c-.561-.33-1.382-.36-2.705-.354-.928.005-3.124.353-2.597.73.205.147 2.573.165 3.009.25.816.158.133 1-.335 1.602-.925 1.19-1.721 2.38-3.137 2.918-1.66.63-3.874 1.113-5.626 1.516-1.04.24-2.655.589-2.753.803-.12.263 1.738.053 1.925.026 1.99-.291 4.444-.887 6.391-1.359 1.54-.372 2.471-1.015 3.587-2.194.525-.554 3.52-3.188 2.24-3.938" transform="translate(51 74) translate(1.757 5.055)"/>
                                    <path fill="#FFF" d="M13.924 49.102c0 1.319 0 2.387-.35 2.387-.351 0-.351-1.068-.351-2.387 0-1.318 0-2.386.35-2.386.351 0 .351 1.068.351 2.386" transform="translate(51 74) translate(1.757 5.055)"/>
                                    <path fill="#296D29" d="M8.367 59.416c-.006 0-.013 0-.02-.002-2.089-.238-4.341-.54-6.693-.9-.52-.079-1.825-.65-1.635-2.325.01-.097.093-.17.195-.155.097.01.166.098.155.195-.19 1.683 1.322 1.934 1.338 1.937 2.348.358 4.595.66 6.68.897.097.011.166.099.156.196-.01.09-.087.157-.176.157" transform="translate(51 74) translate(1.757 5.055)"/>
                                    <g transform="translate(51 74) translate(1.757 5.055) translate(40.957 61.689)">
                                        <mask id="an5m3bqvzn" fill="#fff">
                                            <use xlink:href="#kvv9qswyrm"/>
                                        </mask>
                                        <path d="M.17 0c-.226 0-.227.352 0 .352S.397 0 .17 0" mask="url(#an5m3bqvzn)"/>
                                    </g>
                                    <g transform="translate(51 74) translate(1.757 5.055) translate(41.545 62.042)">
                                        <mask id="vujlx7a5ep" fill="#fff">
                                            <use xlink:href="#9ow6b58jzo"/>
                                        </mask>
                                        <path d="M.17 0c-.227 0-.227.352 0 .352S.397 0 .17 0" mask="url(#vujlx7a5ep)"/>
                                    </g>
                                    <path fill="#4B4B4B" d="M40.261 36.673c-.589.059-.89-.552-1.405-.513-1.617.125-7.818.896-10.097 1.455-.449.11-.522.84-.97.994-.427.147-3.227.88-3.645.994-.838.228-1.294-.166-1.727.213-.328.287-.212.4-.757.604-.728.273-7.626 2.622-8.1 2.786-.625.218-.972-.292-1.425-.143-.57.188-3.74 1.757-4.415 2.128-.562.309-.332.832-.619.986-.298.161-1.385.788-2.039 1.14-.863.465-3.384 1.767-3.79 2.015-.577.35-.794.505-.72.73.027.084.113.205.125.225 1.531-.189 3.492-1.272 4.676-1.82 7.328-3.4 14.755-5.919 23.428-7.76 4.452-.945 11.2-1.87 15.842-2.443 1.654-.204 2.268-.011 3.118-1.576.111-.205.225-.416.336-.628-.01 0-6.817.513-7.816.613" transform="translate(51 74) translate(1.757 5.055)"/>
                                    <path fill="#656565" d="M45.353 33.423c.83-.078-2.44-4.046-4.116-6.166-5.917-7.489-14.573-16.41-18.365-19.193C20.128 6.05 12.554.776 11.017.132c-.843-.352-.855.047-.248.633 1.69 1.63 2.833 2.279 5.195 3.957 3.587 2.547 9.315 7.643 14.2 12.783 4.04 4.252 7.847 9.295 9.964 11.968 1.29 1.63 3.057 4.152 5.225 3.95" transform="translate(51 74) translate(1.757 5.055)"/>
                                </g>
                                <g transform="translate(51 74) translate(12.095 4.057)">
                                    <mask id="f3lz30kucs" fill="#fff">
                                        <use xlink:href="#36ssjksglq"/>
                                    </mask>
                                    <path fill="url(#4lof54y65r)" d="M.104.704C.054.817.004.9 0 1.012c.95 1.218 2.885 2.346 3.963 3.08 6.68 4.548 12.656 9.633 18.693 16.137 3.099 3.338 7.36 8.66 10.24 12.353 1.025 1.317 1.176 1.943 2.953 1.868.94-.039 3.102-.272 3.803-.454-.201-.303-.37-.56-.481-.722-3.075-4.514-8.307-11.044-14.4-17.019C19.45 11.036 7.176 1.791 1.963.065 1.828.022 1.675 0 1.514 0 .947 0 .296.267.104.704" mask="url(#f3lz30kucs)"/>
                                </g>
                                <g transform="translate(51 74) translate(60.356 20.987)">
                                    <mask id="tgh54b5y6v" fill="#fff">
                                        <use xlink:href="#cdmzf1kget"/>
                                    </mask>
                                    <path fill="url(#hh0mwxmtqu)" d="M42.242.824C35.105 1.831 27.05 4.57 21.972 6.648c-6.86 2.809-13.47 6.147-19.894 9.833-.514.296-2.733 1.65-1.888 2.187.4.254 1.918.358 2.568.425.955.098 10.473.645 14.285.5 1.595-.06 62.105-2.006 70.66-2.932 3.83-.414 7.774-.758 11.488-1.849 1.928-.566 7.439-2.944 8.419-3.617.771-.53 1.54-1.213.543-1.623-6.32-2.603-13.68-5.364-20.935-6.782C79.857 1.35 72.445.712 64.953.302 61.707.124 58.448 0 55.193 0c-4.332 0-8.66.22-12.95.824" mask="url(#tgh54b5y6v)"/>
                                </g>
                                <g transform="translate(51 74) translate(77.13 26.647)">
                                    <mask id="mofi9jlg1y" fill="#fff">
                                        <use xlink:href="#bcixr2u4ww"/>
                                    </mask>
                                    <path fill="url(#mveat6s83x)" d="M.231 8.66c-.211.124-.273.251-.204.426.287.75.75 1.378 1.152 2.067.515.882.523 1.772.51 2.734.848-.029 2.045-.07 3.529-.119-.334-.79-.68-1.574-1.032-2.355-.328-.728-1.519-3.11-.988-3.403 1.385-.763 2.464 2.569 2.842 3.419.336.758.647 1.523.98 2.28 6.314-.215 16.27-.556 26.506-.937.044-.916.088-1.83.134-2.746.007-.161-.14-.42-.448-.463-.942-.133-2.152-.785-2.021-1.84.132-1.061.377-2.107.605-3.15.194-.889.317-1.964.97-2.654.723-.763 2.098-.768 3.069-.796.259-.008.301-.064.328-.264.005-.039.037-.328.042-.397.028-.316-.069-.424-.245-.435-.06-.003-.196-.01-.222-.01C35.203.005 34.668 0 34.133 0 22.313 0 10.461 2.684.231 8.66" mask="url(#mofi9jlg1y)"/>
                                </g>
                                <g transform="translate(51 74) translate(120.56 26.722)">
                                    <mask id="8slzo9e8oB" fill="#fff">
                                        <use xlink:href="#usw5gx4sbz"/>
                                    </mask>
                                    <path fill="url(#q72m9l0lqA)" d="M1.293.057C.683.25.69.63.598 1.285.42 2.535.092 9.476 0 12.317c12.71-.503 24.13-1.026 27.499-1.39 2.709-.294 5.474-.552 8.176-1.064.009-.06.022-.118.035-.175.1-.408 1.64-3.07.972-3.265C30.874 3.589 24.444 2.209 18.1 1.205 14.7.668 11.27.32 7.83.166 6.686.116 3.985 0 2.423 0c-.578 0-1 .016-1.13.057" mask="url(#8slzo9e8oB)"/>
                                </g>
                                <g>
                                    <path fill="#FFF" d="M108.153.256L107.526 0c-.182.192-.41.381-.64.555-.973.74-6.447 3.355-8.362 3.977-3.689 1.2-7.607 1.577-11.41 2.033-8.498 1.019-68.632 2.986-70.216 3.052-3.787.159-13.21-.27-14.159-.378-.646-.073-2.153-.188-2.551-.468-.026-.018-.05-.037-.07-.057-.16.251-.177.48.071.638.4.255 1.918.359 2.569.426.954.097 10.472.645 14.285.5 1.595-.06 62.105-2.006 70.66-2.932 3.829-.415 7.774-.759 11.488-1.85 1.927-.565 7.438-2.943 8.418-3.616.772-.53 1.54-1.214.544-1.624" transform="translate(51 74) translate(60.356 30.303)"/>
                                    <path fill="#8BB08B" d="M15.667 6.061C15.538 5.068 15.17 4 14.328 3.29c-.64-.54-2.076-.3-2.987.054-1.269.492-4.95 2.374-4.134 4.206.796 1.788 4.156 2.474 5.908 2.655 2.663.275 2.82-2.083 2.552-4.143" transform="translate(51 74) translate(60.356 30.303)"/>
                                </g>
                                <g transform="translate(51 74) translate(67.574 37.278)">
                                    <mask id="co2xw9w94E" fill="#fff">
                                        <use xlink:href="#bep9p9hyuC"/>
                                    </mask>
                                    <path fill="url(#6telf5s4iD)" d="M2.208.902C1.105.932 0 .595 0 .595c.813 1.772 4.152 2.453 5.898 2.633C8.17 3.463 8.618 1.78 8.533 0c0 0-4.296.848-6.325.902" mask="url(#co2xw9w94E)"/>
                                </g>
                                <g>
                                    <path fill="#FFB4A8" d="M4.745 31.615c-.266-2.775-.602-5.575-1.132-8.312-.236-1.214-.743-1.918-1.994-2.054-1.087-.118-1.204.223-1.384 1.329-.416 2.56-.308 5.069.549 7.518.347.993.842 1.88 1.886 2.211.424.135 2.157.16 2.075-.692" transform="translate(51 74) translate(82.177 1.573)"/>
                                    <path fill="#FFF" d="M18.948 23.272c2.435-.356 5.17-1.867 5.176-4.659.005-2.657-2.25-4.666-5.188-6.03-1.429-.663-2.91-.854-4.483-.633-1.714.241-2.904 1.197-4.637 1.398-3.086.358-5.875 1.046-7.95 3.609C.846 18.216-.553 21.052.51 22.76c.243.39.592.434.888.734.408.415.344.95.41 1.529.203 1.758.55 3.474.92 5.202.312 1.46.418 2.867.459 4.35.029 1.065.062 2.225.604 3.176.696 1.22 2 1.598 3.308 1.799 1.763.27 3.377.866 5.144 1.054 3.74.397 6.932-1.536 6.458-5.314-.24-1.907-.484-3.708-.413-5.641.078-2.137.36-4.261.66-6.377" transform="translate(51 74) translate(82.177 1.573)"/>
                                    <path fill="#3A3A3A" d="M19.924 12.771c-1.168-.718-3.186.2-4.13 1.072-1.197 1.106-2.135 2.517-2.737 3.865-.562 1.255-1.165 3.327-1.501 5.348-.027.16.024.32.213.34.396.043.78.076 1.113.109.277.027.34-.113.41-.43.1-.46.747-3.096.97-3.895.864-3.098 2.523-5.364 4.472-5.9.82-.227 1.266-.092 1.45-.194.109-.061-.024-.164-.26-.315M5.977 13.868c-.948.504-1.092.858-1.36 1.82-.278 1.004-.542 1.893-.699 2.925-.126.828-.318 2.902-.137 4.259.033.243.079.304.247.306.22 0 .656-.042.918-.054.166-.007.17-.128.148-.348-.154-1.52.038-3.725.268-4.766.233-1.051.468-2.102.692-3.154.061-.284.299-1.188-.077-.988" transform="translate(51 74) translate(82.177 1.573)"/>
                                    <path fill="#FCFCFC" d="M8.035 13.533c-.001-1.546-1.06-1.346-1.688-.322-.566.924-.661 2.068-.668 3.134-.005.871.364.614 1.072.089.934-.692 1.286-1.244 1.284-2.9" transform="translate(51 74) translate(82.177 1.573)"/>
                                    <path fill="#FFC9C1" d="M13.21 10.01c-.36-.706-.839-1.335-.968-2.121-.135-.824.061-2.137.114-2.992.103-1.647-.26-3.172-1.69-4.064-2.65-1.651-6.878-.85-7.997 2.427-.503 1.475-.383 2.802.52 4.09.523.749.359 1.036.62 1.898.216.712 1.068 1.304 1.5 2.22.297.63.294 1.106 1.072 1.307.293.075.587.017.88.041.576.047.569.028.595.746.014.392-.957 6.146.084 5.581.204-.11.712-1.68.84-2.64.11-.827.345-1.902.87-2.13.624-.271.981.794 1.455.297.379-.396 3.329-2.263 2.105-4.66" transform="translate(51 74) translate(82.177 1.573)"/>
                                </g>
                                <g transform="translate(51 74) translate(91.531 10.742)">
                                    <mask id="hfetxh8vmH" fill="#fff">
                                        <use xlink:href="#6c9z4uxe5F"/>
                                    </mask>
                                    <path fill="url(#a5jhrs72wG)" d="M3.801 1.238c.262 1.176-.511 2.204-1.378 2.81-.76.531-2.69.935-2.392 1.758.266.737.707 1.585 1.195 2.16.653.771.783.83 1.32-.047 1.42-2.317 3.985-3.842 3.361-5.678C5.663 1.524 4.344.005 3.499 0h-.001c-.34 0 .171.644.303 1.238" mask="url(#hfetxh8vmH)"/>
                                </g>
                                <path fill="#FDFDFD" d="M89.276 11.992c.096.06-.647.398-1.066.45-.482.058-1.008-.086-1-.218.005-.094.447.032.87 0 .579-.044 1.029-.336 1.196-.232" transform="translate(51 74)"/>
                                <g transform="translate(51 74) translate(95.707 23.376)">
                                    <mask id="iqc8pz2g9K" fill="#fff">
                                        <use xlink:href="#tp434nmouI"/>
                                    </mask>
                                    <path fill="url(#b3kng4kq8J)" d="M2.89 3.038c.053 1.014.797 2.28 1.051 3.234.253.945-.067 1.733-.303 2.632-.56 2.154 1.046 4.188.582 6.296-.19.862-.825 1.588-1.794 1.473-.993-.118-2.337-2.337-2.425-.648-.058 1.136 1.83 1.903 3.156 1.931 1.43-.882 2.271-2.398 2.012-4.469-.24-1.906-.483-3.708-.413-5.641.074-2.036.335-4.059.62-6.076-.096-.221-.198-.433-.295-.633C4.675.314 4.324 0 4.029 0 3.237 0 2.848 2.266 2.89 3.038" mask="url(#iqc8pz2g9K)"/>
                                </g>
                                <g>
                                    <path fill="#3A3A3A" d="M23.795 73.32c-.241-3.141-.153-9.302-1.13-12.289-.449-1.367-.893-2.776-1.296-4.158-.448-1.542-.268-3.195-.193-4.784.07-1.508.79-6.219 1.066-7.607.27-1.355.57-3.835.548-5.404-.045-3.18-1.429-8.102-1.631-10.115-.04-.403-.035-2.273-.368-2.452-.615-.33-.448 1.988-1.132 2.54-.504.408-1.609 1.347-2.96.125-1.593-1.44-1.76-4.558-1.86-6.51-.08-1.523-.114-6.641-.03-7.404.037-.331-.211-.513-.544-.56-1.866-.26-7.373-.274-7.863-.264-.332.006-.801.007-.787.456.034 1.031.493 9.35.045 10.606-.366 1.025-1.318 2.967-1.637 3.463-.843 1.31-.019 3.61.005 4.285.052 1.45-.652 2.986-.742 3.806-.183 1.677-.314 8.997-.323 10.69-.039 6.723 1.09 7.881 2.028 10.807 2.05 6.394 3.956 11.608 4.15 14.463.129 1.875-1.003 2.823-.329 4.943.607 1.907 4.278 2.091 5.402 1.45 1.75-.997.752-2.964.397-4.55-.373-1.66-.402-3.207-.463-5.079-.162-4.966-.684-9.227-1.632-12.54-1.004-3.512-.948-11.29-.568-10.566.846 1.616 4.261 17.12 5.217 24.52.354 2.741-.38 6.529 2.48 7.833.892.407 3.364.6 3.96-.442.808-1.414.304-3.77.19-5.263" transform="translate(51 74) translate(80.468 10.704)"/>
                                    <path fill="#FFC9C1" d="M25.658 13.813c-1.045-.559-2.477-.575-3.574-.31-.85.205-1.775.88-2.078 1.902-.192.647-.035 1.492.039 2.148.084.758.093 1.517.169 2.272.143 1.423.758 3.027 1.537 4.163.52.756 1.777 2.2 2.752 1.771.844-.37 1.034-2.03 1.197-2.884.338-1.78.367-3.626.43-5.438.03-.814.637-3.03-.472-3.624" transform="translate(51 74) translate(80.468 10.704)"/>
                                    <path fill="#262626" d="M14.61 74.857c-.372-1.66-.401-3.207-.463-5.08-.16-4.964-.683-9.226-1.63-12.54-1.005-3.512-.949-11.29-.57-10.565.193.367.517 1.45.916 2.993.448-.34-.006-2.087-.327-2.96-.705-1.92-1.222-6.363-2.41-5.706-.955.529-1.046 5.13-1.01 6.224.08 2.387.15 4.39 1.101 6.6.422.983.842 2.417 1.055 3.476.273 1.357.164 2.845.176 4.218.01 1.184.104 2.349.522 3.465.429 1.147 1.047 2.013 1.343 3.223.362 1.484.038 2.585.174 3.866.072.678.909 4.224 1.561 4.42-.136-.552-.32-1.114-.437-1.634M23.795 73.32c-.24-3.141-.152-9.303-1.131-12.289-.448-1.367-.892-2.775-1.295-4.159-.448-1.54-.268-3.194-.194-4.783.07-1.509.79-6.22 1.068-7.608.27-1.353.57-3.834.546-5.403-.044-3.18-1.428-8.103-1.631-10.116-.04-.402-.034-2.272-.367-2.45-.616-.33-.502 2.008-1.132 2.539-.656.552-.13.994.234 2.297.555 1.99-.218 4.094-.248 5.996-.025 1.601.622 6.504-.392 11.982-.527 2.848-.33 4.505.066 6.037.521 2.015 1.288 3.986 2.007 5.71.783 1.876.99 3.789.917 5.723-.073 1.993-.664 4.072-.363 6.075.164 1.092.776 1.965 1.067 3.006.14.495.173.972.081 1.475-.056.302.171 1.013.44 1.414.053-.057.1-.119.136-.184.81-1.414.305-3.769.19-5.262" transform="translate(51 74) translate(80.468 10.704)"/>
                                    <path fill="#FFC9C1" d="M24.73 24.68c-.404-1.135-2.864-2.916-4.647-3.707-2.086-.926-4.365-1.088-6.609-1.342-1.25-.142-2.501-.317-3.702-.699-1.081-.343-2.082-.879-3.14-1.28-.923-.351-1.903-.6-2.9-.476-1.152.144-2.313.543-3.412.902-.522.17-.287.535-.118.592 1.061.355 2.036-.087 3.078-.049-.529.557-1.04 1.36-.435 1.986.646.669 1.632 1.132 2.518 1.333.44.1.813.011 1.215-.204.31-.166.584-.243 1.148-.136.392.074.849.07 1.329-.19.705-.383 2.664.597 3.079.823.761.416 4.914 3.31 6.348 3.97 1.337.615 2.852.691 4.285.395.858-.178 2.389-.726 1.964-1.918" transform="translate(51 74) translate(80.468 10.704)"/>
                                    <path fill="#FFB4A8" d="M7.908.755C7.87.543 7.663.423 7.602.285c-.22-.502-.452-.27-.46.148-.003.162-.08.3-.288.359-.316.088-.48-.07-.42.075.072.174.41.286.672.304.413.03.85-.144.802-.416M25.657 13.813c-.407-.112-.8.425-.683 1.61.128 1.294-.276 2.316-.72 3.647-.382 1.148-.401 1.797-.03 2.947.257.802.763 1.93.04 2.583-.524.475-1.803.233-2.741.763-1.656.937-3.048.48-4.22-.42-1.94-1.492-3.547-3.74-5.878-4.191-.828-.16-1.493-.14-2.182.15-.771.325-1.102.27-1.765.152-1.492-.265-2.567.44-2.247.855l.132.032c.44.099.813.01 1.216-.205.31-.166.583-.244 1.148-.136.391.074.848.07 1.328-.191.705-.382 2.663.599 3.08.825.76.415 4.913 3.308 6.347 3.969 1.337.614 2.852.692 4.284.395.547-.113 1.367-.378 1.78-.862.806-.41.995-2.021 1.153-2.86.339-1.781.367-3.626.433-5.439.028-.815.738-3.29-.475-3.624" transform="translate(51 74) translate(80.468 10.704)"/>
                                </g>
                                <g transform="translate(51 74) translate(99.46 16.57)">
                                    <mask id="kzo72u4gjN" fill="#fff">
                                        <use xlink:href="#lo5w1ucqgL"/>
                                    </mask>
                                    <path fill="url(#hdxzn016xM)" d="M.397 3.322c-.482 1.793-.867 5.973.997 6.938 2.044 1.058 5.442 1.126 6.094-1.552.352-1.445.251-3.039-.096-4.473-.295-1.217-.834-2.449-1.716-3.378C5.101.252 4.486 0 3.883 0 2.31 0 .83 1.713.397 3.322" mask="url(#kzo72u4gjN)"/>
                                </g>
                                <g transform="translate(51 74) translate(103.964 16.01)">
                                    <mask id="67imzudqnQ" fill="#fff">
                                        <use xlink:href="#81ihcwom9O"/>
                                    </mask>
                                    <path fill="url(#a93nwl2s4P)" d="M1.544 2.467c.165.738-.236 1.768.064 3.3.233 1.191.428 2.348.3 3.445-.122 1.049-.59 1.98-.434 1.93.76-.244 1.284-.94 1.51-1.873.352-1.446.251-3.04-.096-4.474-.173-.712-.426-1.5-.726-2.187C1.73 1.625 1.06.79.136.001L.1 0c-.514 0 1.105.953 1.444 2.467" mask="url(#67imzudqnQ)"/>
                                </g>
                                <g>
                                    <path fill="#FFB4A8" d="M17.011 7.53c-1.644-.043-1.66-1.214-2.148-.57.081.674.335 1.324.785 1.963.125.179.204.263.318.325.17.09.558.116.893-.017.241-.095.443-.157.84-.084.808.147 1.657-.12 1.973-.424.271-.26.501-.753.587-1.049.155-.53.509-.803.596-1.181.099-.431 0-.54-.596-.376-.744.206-2.033 1.446-3.248 1.414" transform="translate(51 74) translate(69.717)"/>
                                    <path fill="#3A3A3A" d="M24.833 4.928c.002-1.306-.253-2.257-1.046-3.177-.732-.85-1.337-1.45-2.527-1.67-1.978-.367-5.615.527-6.657 2.471-.297.553-.965 3.103-.55 3.62.263.327 1.319.66 1.838.667.62.007 2.656-.39 3.291-.367.693.024 1.384-.01 2.1-.165.54-.118 3.526-.626 3.55-1.38M14.149 7.878c-.7-.343-1.784-.355-2.251-.224-.608.17-.572.693-.116.879.611.248 1.178-.283 1.734-.46.203-.065.868-.08.633-.195" transform="translate(51 74) translate(69.717)"/>
                                    <path fill="#496999" d="M19.767 6.228c-.727.154-1.208.212-2.05.08-.735-.114-1.838-.343-2.587-.355-1.311-.02-2.54 1-3.513 1.779-.08.064-.202.193-.151.255.05.06.232.035.326-.001.672-.255 1.466-.198 2.147-.033.197.048 1.205.312 1.525.348.465.103.962.16 1.416.061.604-.13 1.257-.463 1.77-.798.507-.33 1.04-.729 1.45-1.1.142-.129.118-.331-.333-.236" transform="translate(51 74) translate(69.717)"/>
                                    <path fill="#FFB4A8" d="M22.773 9.644c-.23-.495-.572 1.085-.635 1.499-.134.862-.453 1.696-1.126 2.226-.51.402-1.45.765-2.034.724-.138-.009-.332-.028-.426-.07-.396-.174-.504-.623-.591-.534-.031.032.125.3.144.353.082.23.435.43.736.506.292.076.587.018.88.042.529.043.566.03.587.583.566-.009 1.069-.083 1.32-.203.893-.43 1.254-1.19 1.316-2.08.077-1.127.055-2.559-.171-3.046" transform="translate(51 74) translate(69.717)"/>
                                    <path fill="#FFDAD5" d="M30.833 31.676c-2.084-.926-4.363-1.088-6.607-1.341-1.25-.141-2.503-.318-3.702-.7-1.083-.343-2.083-.878-3.141-1.28-.923-.35-1.903-.6-2.9-.474-1.151.143-2.314.542-3.41.9-.027.01-.052.019-.075.03.43.455 1.88-.186 2.288-.287.804-.2 1.601-.32 2.432-.239 1.95.191 3.593 1.17 5.397 2.025 1.423.676 3.552.755 5.405.83.972.043 1.98.105 2.933.31.245.053 1.916.632 1.976.514-.204-.106-.404-.203-.596-.288" transform="translate(51 74) translate(69.717)"/>
                                    <path fill="#DADADA" d="M.23 25.997h8.562c.19 0 .373.08.503.22l5.193 5.622c.136.147.032.387-.168.387H5.758c-.19 0-.373-.08-.503-.22L.062 26.383c-.137-.147-.032-.387.168-.387" transform="translate(51 74) translate(69.717)"/>
                                    <path fill="#FFC9C1" d="M15.646 36.15c-.036-1.283-.12-2.508-.344-3.759-.396-.104-.76-.166-.982-.166H6.479c.373-.276 1.407-.87.925-1.137-.374-.206-2.678.5-2.821.385-.1-.082.357-.332.8-.534.319-.146.648-.286.97-.475.365-.214.694-.766-.119-.69-.415.04-1.558.377-1.782.457-.174.062-1.14.455-.505-.157.309-.298.845-.5.823-.876-.037-.642-2.275.524-2.447.889-.285.605-.539 1.572-.436 1.883.224.68 1.097 1.331 1.597 1.718.441.342.934.661 1.449.612.84-.08 1.18-.39 2.055-.321 1.839.144 4.819 1.804 6.24 2.161.931.234 1.824.192 2.42.1l-.002-.09" transform="translate(51 74) translate(69.717)"/>
                                    <path fill="#FFB4A8" d="M15.646 36.15c-.01-.33-.022-.657-.04-.983-.467-.01-1.16.237-1.655.296-.662.075-1.337.005-1.983-.144-1.43-.332-2.42-1.205-3.713-1.837-1.271-.622-2.1.033-3.285.486-.329.125-.835.037-1.074.014.328.207.677.353 1.037.318.84-.081 1.18-.39 2.054-.322 1.84.145 4.82 1.804 6.242 2.161.93.235 1.824.193 2.418.1l-.001-.09" transform="translate(51 74) translate(69.717)"/>
                                </g>
                            </g>
                        </g>
                    </g>
                </g>
            </g>
        </g>
    </g>
</svg>
