<svg xmlns="http://www.w3.org/2000/svg" xmlns:xlink="http://www.w3.org/1999/xlink" width="312" height="156" viewBox="0 0 312 156">
    <defs>
        <linearGradient id="u2yfbjyxmf" x1="82.026%" x2="12.964%" y1="45.418%" y2="59.962%">
            <stop offset="0%" stop-color="#676767"/>
            <stop offset="100%" stop-color="#383838"/>
        </linearGradient>
        <linearGradient id="7ewvann55i" x1="100%" x2="-17.441%" y1="50%" y2="50%">
            <stop offset="0%" stop-color="#EDEDED"/>
            <stop offset="100%" stop-color="#B1B1B1"/>
        </linearGradient>
        <linearGradient id="fy9edkvttl" x1="-361.043%" x2="-89.301%" y1="50%" y2="50%">
            <stop offset="0%" stop-color="#383838"/>
            <stop offset="100%" stop-color="#383838"/>
        </linearGradient>
        <linearGradient id="fbst08ap4o" x1="-2318.929%" x2="-650.427%" y1="50%" y2="50%">
            <stop offset="0%" stop-color="#383838"/>
            <stop offset="100%" stop-color="#383838"/>
        </linearGradient>
        <linearGradient id="pvnje4av7r" x1="-370.849%" x2="-8.498%" y1="50%" y2="50%">
            <stop offset="0%" stop-color="#383838"/>
            <stop offset="100%" stop-color="#383838"/>
        </linearGradient>
        <linearGradient id="q97fvtbr1u" x1="-394.628%" x2="158.421%" y1="50.001%" y2="50.001%">
            <stop offset="0%" stop-color="#383838"/>
            <stop offset="100%" stop-color="#383838"/>
        </linearGradient>
        <linearGradient id="1jpr04mvpx" x1="-150.473%" x2="236.147%" y1="50%" y2="50%">
            <stop offset="0%" stop-color="#383838"/>
            <stop offset="100%" stop-color="#383838"/>
        </linearGradient>
        <linearGradient id="quhhfngcjA" x1="92.532%" x2="-12.657%" y1="50%" y2="50%">
            <stop offset="0%" stop-color="#DFF2FF"/>
            <stop offset="100%" stop-color="#1C70B8"/>
        </linearGradient>
        <path id="bv49otynoe" d="M55.96.496c-5.73.425-11.512.916-17.13 2.135-5.532 1.2-10.859 3.258-15.778 6.005-5.02 2.803-9.202 6.587-13.884 9.845-.654.455-1.32.894-2.004 1.305-.566.34-.94.383-1.549.563-1.11.326-1.495 1.169-2.207 1.965-.858.959-1.763 1.372-2.056 2.722-.234 1.08-.208 2.236-.137 3.331.094 1.448.424 2.63-.295 3.986-.543 1.023-.87 2.03-.906 3.208-.081 2.592 1.135 5.183.433 7.741C-.396 46.38.16 49.05.445 51.896c.114 1.144.018 2.193.778 3.131.616.76 1.134 1.057 2.103 1.615.62.359 1.63 1.08 1.422-.107-.52-2.954-1.169-6.2-.06-11.541.648-3.116 3.063-8.368 7.297-8.7 3.383-.267 5.918 3.81 7.164 6.132 1.359 2.534 2.084 5.286 2.565 8.108.862 5.068-.213 8.44.14 8.848.174.2.418.244.687.244H71.196c-.571-2.178-1.38-4.44-1.38-9.635 0-4.3 1.398-9.645 5.001-12.437 2.074-1.607 8.212-3.092 12.761 3.605 1.437 2.116 3.266 6.343 3.92 9.46.729 3.463 1.042 6.919 1.078 9.964H161.21c.27 0 .531-.011.8-.12.36-.145.537-.43.826-.664.362-.29.67-.266 1.044-.473.911-.504 1.523-2.296 1.746-3.24.304-1.284.05-2.58-.07-3.871-.195-2.091.373-5.564.226-9.37-.052-1.323-.133-3.095-1.28-3.878-.215-.147-.876-.678-1.028-.913-.583-.893-.156-2.323-.307-3.334-.163-1.091-1.135-2.13-2.01-2.768-1.018-.741-1.784-1.19-2.917-1.731-1.135-.543-2.465-.972-3.68-1.502-1.204-.525-2.28-.859-3.397-1.529-1.022-.613-1.947-1.214-2.981-1.816-2.929-1.708-7.416-3.446-12.102-4.425-1.168-.244-2.376-.848-3.164-1.404C129.802 17.352 117.41 8.59 110.218 5.4c-2.607-1.156-4.956-2.069-7.877-2.789-2.679-.66-5.324-1.214-8.124-1.509C88.018.45 80.033.008 73.829 0h-.823c-5.688 0-11.37.075-17.046.496"/>
        <path id="3n2fun2mmh" d="M7.722.04C6.38.15 5.055.398 3.742.681c-.404.088-3.828.791-3.74 1.17.09.39.622.982.899 1.252.827.805 2.273 1.973 3.27 2.565 2.32 1.378 4.546 1.951 7.203 2.396 4.849.811 10.124 1.161 15.143 1.24 2.515.04 4.29-.986 6.408-2.233 1.174-.692 2.603-1.302.928-1.727-1.114-.283-12.878-3.074-18.12-4.246C13.52.605 11.036 0 8.707 0c-.332 0-.661.012-.986.04"/>
        <path id="uipt53ssck" d="M.087.553c1.189 2.04 3.299 6.032 4.375 8.31.14.297.568.226.675.174 2.054-.985 5.721-1.154 6.951.808.078.124.065.297.264.297 2.822-.005 5.694.188 8.422.97 1.239.355 2.429.988 3.739.988l4.005.001c.315 0 .092-.442-.124-.65-1.832-1.775-8.747-6.143-12.708-7.854C11.043 1.592 6.62.197.406.001L.373 0C-.11 0-.025.36.087.553"/>
        <path id="867w2jps5n" d="M.202.692C.1.758-.048.849.016 1.006c.096.235.364 1.11.447 1.334.051.14.176.147.294.148.39.003 1.99.05 2.27-.057.458-.174.43-.88.646-1.18.138-.192.423-.293.704-.363.548-.137.195-.351.008-.47C3.923.124 3.335 0 2.728 0 1.812 0 .851.282.202.692"/>
        <path id="lhmg89va8q" d="M15.95.03C10.256.462 5.73 1.588.447 5.079c-.36.238-.74.542-.108 1.19 1.809 1.857 4.876 5.025 5.782 5.915.558.548 1.037.619 1.824.559 5.082-.385 8.155-.653 13.03-.876.655-.03.571-.291.432-.744-.664-2.156-3.834-9.944-4.258-10.618C16.888.09 16.712 0 16.409 0c-.126 0-.274.015-.459.03M4.858 8.255l.676-3.61c.09-.475.583-.85 1.104-.85h7.267c.522 0 .981.375 1.029.85l.356 3.61c.06.604-.387 1.109-1 1.109H5.76c-.613 0-1.015-.505-.902-1.11"/>
        <path id="fmho23lgmt" d="M1.109.817c-.323.81-.43 1.832-.619 2.685C.272 4.49.16 5.414.015 6.415c-.127.885.59 1.217.812.874.321-.493.465-1.011.63-1.499.208-.61.568-2.223 1.532-2.223 1.314 0 3.937.012 4.717.053.979.052 1.593.304 2.127 1.111.275.417.43 1.166.831 1.457.528.383 1.088-.057 1.346-.244.274-.2 1.501-1.26 1.752-1.466.09-.075.223-.191.286-.29.145-.226-.126-.472-.265-.603-1.327-1.245-2.953-2.337-4.78-2.94-2.124-.7-4.862-.562-6.71-.643L2.226 0c-.543 0-.915.305-1.118.817"/>
        <path id="86nt6vdhhw" d="M19.844.006C14.908.926 12.87 1.728 9.336 3.24 5.727 4.787 1.93 7.409.211 8.857c-.442.372-.117.739.315.739 1.238 0 5.265.031 6.349.031.226 0 .469-.162.54-.434.136-.51.19-.833.319-1.346.136-.541.375-1.512 1.382-1.512.702 0 3.868.088 5.129.088.641 0 1.67-.13 2.01.738.303.771.415 2.294.483 3.386.022.36.282.766.57.651.162-.064.316-.787.491-1.622.333-1.59 1.277-5.361 2.333-9.116.07-.251-.028-.46-.228-.46-.02 0-.039.002-.06.006"/>
        <path id="ri8xmswkfz" d="M.489.641C7.15-.472 27.175.107 31.392.57c2.44.268 4.18.623 6.277 1.605 3.155 1.477 6.065 3.038 9.016 4.832 1.213.737 5.032 3.248 4.366 4.956-.713 1.83-10.981-.977-12.911-1.607-1.805-.59-13.948-4.196-17.958-4.821-4.495-.701-7.088-.783-11.603-.975-2.089-.089-4.893.077-6.548-1.28l-.35-.29-.08-.067"/>
        <rect id="qcltbjxt6a" width="312" height="156" x="0" y="0" rx="8"/>
        <rect id="pic4dg5tnc" width="312" height="156" x="0" y="0" rx="8"/>
    </defs>
    <g fill="none" fill-rule="evenodd">
        <g>
            <g>
                <g transform="translate(-24 -721) translate(0 605) translate(24 116)">
                    <mask id="qz9aaszwzb" fill="#fff">
                        <use xlink:href="#qcltbjxt6a"/>
                    </mask>
                    <use fill="#F5F5F5" xlink:href="#qcltbjxt6a"/>
                    <g mask="url(#qz9aaszwzb)">
                        <mask id="66pmrqiibd" fill="#fff">
                            <use xlink:href="#pic4dg5tnc"/>
                        </mask>
                        <g mask="url(#66pmrqiibd)">
                            <g>
                                <path fill="#F5F5F5" d="M0 115.408L12.392 115.408 12.392 46.518 0 46.518z" transform="translate(30 46)"/>
                                <path fill="#E0E0E0" d="M42.163 115.408L68.173 115.408 68.173 31.116 42.163 31.116z" transform="translate(30 46)"/>
                                <path fill="#F5F5F5" d="M26.591 115.408L42.163 115.408 42.163 31.116 26.591 31.116z" transform="translate(30 46)"/>
                                <path fill="#E0E0E0" d="M12.392 115.408L34.377 115.408 34.377 46.518 12.392 46.518z" transform="translate(30 46)"/>
                                <path fill="#EFEFEF" d="M14.284 51.954L34.377 51.954 34.377 49.978 14.284 49.978zM18.551 56.709L34.377 56.709 34.377 54.733 18.551 54.733zM14.284 61.464L34.377 61.464 34.377 59.488 14.284 59.488zM14.284 66.218L25.327 66.218 25.327 64.243 14.284 64.243zM14.284 70.973L34.377 70.973 34.377 68.998 14.284 68.998zM16.278 75.728L34.377 75.728 34.377 73.753 16.278 73.753zM14.284 80.483L20.591 80.483 20.591 78.508 14.284 78.508zM14.284 85.238L31.633 85.238 31.633 83.263 14.284 83.263zM14.284 89.993L23.384 89.993 23.384 88.018 14.284 88.018zM14.284 94.748L34.377 94.748 34.377 92.773 14.284 92.773zM20.128 99.503L34.377 99.503 34.377 97.528 20.128 97.528zM14.284 104.258L34.377 104.258 34.377 102.283 14.284 102.283zM14.284 115.408L34.377 115.408 34.377 107.037 14.284 107.037z" transform="translate(30 46)"/>
                                <path fill="#E0E0E0" d="M6.196 115.408L10.758 115.408 10.758 107.037 6.196 107.037z" transform="translate(30 46)"/>
                                <path fill="#EFEFEF" d="M48.08 37.689L68.173 37.689 68.173 35.713 48.08 35.713zM48.08 42.444L68.173 42.444 68.173 40.468 48.08 40.468zM48.08 47.199L68.173 47.199 68.173 45.223 48.08 45.223zM48.08 51.954L68.173 51.954 68.173 49.978 48.08 49.978zM48.08 56.709L68.173 56.709 68.173 54.733 48.08 54.733zM48.08 61.464L68.173 61.464 68.173 59.488 48.08 59.488zM48.08 66.218L68.173 66.218 68.173 64.243 48.08 64.243zM48.08 70.973L68.173 70.973 68.173 68.998 48.08 68.998zM48.08 75.728L68.173 75.728 68.173 73.753 48.08 73.753zM48.08 80.483L68.173 80.483 68.173 78.508 48.08 78.508zM48.08 85.238L68.173 85.238 68.173 83.263 48.08 83.263zM48.08 89.993L68.173 89.993 68.173 88.018 48.08 88.018zM48.08 94.748L68.173 94.748 68.173 92.773 48.08 92.773zM48.08 99.503L68.173 99.503 68.173 97.528 48.08 97.528zM48.08 104.258L68.173 104.258 68.173 102.283 48.08 102.283zM48.08 109.013L68.173 109.013 68.173 107.038 48.08 107.038z" transform="translate(30 46)"/>
                                <path fill="#FFF" d="M61.593 51.954L68.173 51.954 68.173 49.978 61.593 49.978zM60.016 61.464L61.593 61.464 61.593 59.488 60.016 59.488zM48.08 42.444L51.296 42.444 51.296 40.468 48.08 40.468zM57.666 47.199L59.212 47.199 59.212 45.223 57.666 45.223zM49.75 70.973L54.883 70.973 54.883 68.998 49.75 68.998zM64.221 37.689L65.643 37.689 65.643 35.73 64.221 35.73zM61.593 47.199L63.123 47.199 63.123 45.223 61.593 45.223z" transform="translate(30 46)"/>
                                <path fill="#F5F5F5" d="M38.638 31.116L45.688 31.116 45.688 26.885 38.638 26.885zM112.179 115.408L126.07 115.408 126.07 15.57 112.179 15.57z" transform="translate(30 46)"/>
                                <path fill="#E0E0E0" d="M126.071 115.408L147.912 115.408 147.912 15.57 126.071 15.57zM77.791 115.408L108.094 115.408 108.094 0 77.791 0z" transform="translate(30 46)"/>
                                <path fill="#EFEFEF" d="M126.071 22.143L147.912 22.143 147.912 20.168 126.071 20.168zM126.071 26.898L147.912 26.898 147.912 24.923 126.071 24.923zM126.071 31.653L147.912 31.653 147.912 29.677 126.071 29.677zM126.071 36.408L147.912 36.408 147.912 34.432 126.071 34.432zM126.071 41.163L147.912 41.163 147.912 39.187 126.071 39.187zM126.071 45.918L147.912 45.918 147.912 43.942 126.071 43.942zM126.071 50.673L147.912 50.673 147.912 48.697 126.071 48.697zM126.071 55.428L147.912 55.428 147.912 53.452 126.071 53.452zM126.071 60.183L147.912 60.183 147.912 58.207 126.071 58.207zM126.071 64.938L147.912 64.938 147.912 62.962 126.071 62.962zM126.071 69.693L147.912 69.693 147.912 67.717 126.071 67.717zM126.071 74.448L147.912 74.448 147.912 72.472 126.071 72.472zM126.071 79.202L147.912 79.202 147.912 77.227 126.071 77.227zM126.071 83.957L147.912 83.957 147.912 81.982 126.071 81.982zM126.071 88.712L147.912 88.712 147.912 86.737 126.071 86.737zM126.071 93.467L147.912 93.467 147.912 91.492 126.071 91.492zM126.071 98.222L147.912 98.222 147.912 96.247 126.071 96.247z" transform="translate(30 46)"/>
                                <path fill="#E0E0E0" d="M117.065 22.143L126.071 22.143 126.071 20.168 117.065 20.168zM117.065 26.898L126.071 26.898 126.071 24.923 117.065 24.923zM117.065 31.653L126.071 31.653 126.071 29.677 117.065 29.677zM117.065 36.408L126.071 36.408 126.071 34.432 117.065 34.432zM117.065 41.163L126.071 41.163 126.071 39.187 117.065 39.187zM117.065 45.918L126.071 45.918 126.071 43.942 117.065 43.942zM117.065 50.673L126.071 50.673 126.071 48.697 117.065 48.697zM117.065 55.428L126.071 55.428 126.071 53.452 117.065 53.452zM117.065 60.183L126.071 60.183 126.071 58.207 117.065 58.207zM117.065 64.938L126.071 64.938 126.071 62.962 117.065 62.962zM117.065 69.693L126.071 69.693 126.071 67.717 117.065 67.717zM117.065 74.448L126.071 74.448 126.071 72.472 117.065 72.472zM117.065 79.202L126.071 79.202 126.071 77.227 117.065 77.227zM117.065 83.957L126.071 83.957 126.071 81.982 117.065 81.982zM117.065 88.712L126.071 88.712 126.071 86.737 117.065 86.737zM117.065 93.467L126.071 93.467 126.071 91.492 117.065 91.492zM117.065 98.222L126.071 98.222 126.071 96.247 117.065 96.247z" transform="translate(30 46)"/>
                                <path fill="#FFF" d="M143.008 22.143L144.987 22.143 144.987 20.168 143.008 20.168zM126.071 31.653L134.102 31.653 134.102 29.677 126.071 29.677zM138.802 50.673L140.781 50.673 140.781 48.697 138.802 48.697zM128.227 55.428L134.968 55.428 134.968 53.452 128.227 53.452zM141.5 64.938L143.387 64.938 143.387 62.962 141.5 62.962zM135.171 64.938L136.991 64.938 136.991 62.962 135.171 62.962zM141.5 69.693L143.387 69.693 143.387 67.717 141.5 67.717z" transform="translate(30 46)"/>
                                <path fill="#EFEFEF" d="M121.935 55.428L123.651 55.428 123.651 53.452 121.935 53.452zM117.065 36.408L120.358 36.408 120.358 34.432 117.065 34.432zM121.912 26.898L123.651 26.898 123.651 24.923 121.912 24.923z" transform="translate(30 46)"/>
                                <path fill="#F5F5F5" d="M155.371 115.408L167.321 115.408 167.321 38.733 155.371 38.733z" transform="translate(30 46)"/>
                                <path fill="#E0E0E0" d="M162.797 115.408L164.857 115.408 164.857 43.942 162.797 43.942z" transform="translate(30 46)"/>
                                <path fill="#EFEFEF" d="M162.797 50.673L164.857 50.673 164.857 48.697 162.797 48.697zM162.797 64.938L164.857 64.938 164.857 58.207 162.797 58.207zM162.797 83.957L164.857 83.957 164.857 81.982 162.797 81.982z" transform="translate(30 46)"/>
                                <path fill="#FFF" d="M104.73 115.408L105.397 115.408 105.397 4.863 104.73 4.863zM101.699 115.408L102.367 115.408 102.367 4.863 101.699 4.863zM98.669 115.408L99.337 115.408 99.337 4.863 98.669 4.863zM95.639 115.408L96.307 115.408 96.307 4.863 95.639 4.863z" transform="translate(30 46)"/>
                                <path fill="#EFEFEF" d="M92.609 115.408L93.277 115.408 93.277 4.863 92.609 4.863zM89.578 68.392L90.246 68.392 90.246 4.863 89.578 4.863z" transform="translate(30 46)"/>
                                <path fill="#FFF" d="M86.548 115.408L87.216 115.408 87.216 4.863 86.548 4.863z" transform="translate(30 46)"/>
                                <path fill="#EFEFEF" d="M83.518 58.946L84.186 58.946 84.186 4.863 83.518 4.863zM80.487 57.094L81.155 57.094 81.155 4.863 80.487 4.863z" transform="translate(30 46)"/>
                                <path fill="#F5F5F5" d="M68.173 115.408L77.791 115.408 77.791 54.471 68.173 54.471z" transform="translate(30 46)"/>
                                <path fill="#E0E0E0" d="M185.305 114.761L238 114.761 238 76.677 185.305 76.677zM166.061 114.761L176.852 114.761 176.852 61.274 166.061 61.274z" transform="translate(30 46)"/>
                                <path fill="#F5F5F5" d="M176.852 114.761L185.305 114.761 185.305 76.677 176.852 76.677z" transform="translate(30 46)"/>
                                <path fill="#EFEFEF" d="M185.305 84.592L201.003 84.592 201.003 82.616 185.305 82.616zM187.635 89.346L235.826 89.346 235.826 87.371 187.635 87.371zM202.054 94.101L226.359 94.101 226.359 92.126 202.054 92.126zM185.305 98.856L195.087 98.856 195.087 96.881 185.305 96.881zM188.468 103.611L217.577 103.611 217.577 101.636 188.468 101.636zM185.305 114.761L232.336 114.761 232.336 106.391 185.305 106.391z" transform="translate(30 46)"/>
                                <path fill="#F5F5F5" d="M181.791 76.677L188.841 76.677 188.841 72.445 181.791 72.445z" transform="translate(30 46)"/>
                                <path fill="#E0E0E0" d="M188.841 76.677L196.973 76.677 196.973 72.445 188.841 72.445z" transform="translate(30 46)"/>
                                <path fill="#F5F5F5" d="M116.879 15.57L123.929 15.57 123.929 11.339 116.879 11.339z" transform="translate(30 46)"/>
                                <path fill="#E0E0E0" d="M123.929 15.57L132.062 15.57 132.062 11.339 123.929 11.339zM45.688 31.116L53.82 31.116 53.82 26.885 45.688 26.885z" transform="translate(30 46)"/>
                                <g>
                                    <path fill="#616161" d="M158.198 116.47h-5.983l-6.97-33.274c-.497-2.374-.672-4.805-.52-7.226l.681-10.847.85-13.202h14.794l-6.976 28.034c-.21.838-.26 1.708-.153 2.565l4.277 33.95z" transform="translate(30 46) translate(26.59 4.917)"/>
                                    <path fill="#616161" d="M167.219 116.47h-5.772l-2.164-64.55h11.966l.43 2.624c.748 4.71.755 7.83.18 10.403-.251 1.124-3.409 15.961-3.409 15.961l-1.231 35.563z" transform="translate(30 46) translate(26.59 4.917)"/>
                                    <path fill="#616161" d="M164.848 64.723L148 65.704 147.569 51.921 165.075 51.921z" transform="translate(30 46) translate(26.59 4.917)"/>
                                    <path fill="#383838" d="M150.232 19.712c4.648-1.237 12.17-1.435 17.917-.235 6.654 1.39 5.608 4.168 5.436 5.319-.826 5.503-2.336 27.125-2.336 27.125h-24.992c-1.037 0-.989-.706-1.067-1.608-.404-4.704-1.002-19.491-.783-25.31.078-2.069-.09-3.715 5.825-5.29" transform="translate(30 46) translate(26.59 4.917)"/>
                                    <path fill="#383838" d="M135.175 43.743l17.88-16.708s-1.252-2.369-2.65-4.255c-1.626-2.194-3.366-2.472-5.87-.34-2.099 1.789-6.637 7.67-7.392 8.704-1.852 2.534-7.103 9.525-7.103 9.525l1.517 1.894c1.017.92 2.724 2.038 3.618 1.18M183.245 45.528c-.226-4.758-3.148-14.816-6.369-20.064-2.795-4.555-5.421-5.647-8.13-5.056-.844.184-.406 2.306.002 3.78 1.152 4.164 6.469 18.063 8.641 21.012 1.216 1.65 2.453 4.478 4.1 3.248.694-.518 1.841-1.135 1.756-2.92" transform="translate(30 46) translate(26.59 4.917)"/>
                                    <path fill="#FEC1B5" d="M154.976 18.696h.449c.363 0 .677-.266.735-.625.122-.76.246-1.853.27-3.234.051-2.888-.359-5.143-.359-5.143h6.449l-.14 7.949c-.011.581.452 1.053 1.035 1.053h.153c-.04 2.265-3.388 3.586-5.837 3.586-2.45 0-3.783-1.945-2.755-3.586" transform="translate(30 46) translate(26.59 4.917)"/>
                                    <path fill="#FFF" d="M175.858 46.221c.955.877 6.299 2.453 7.345.784.672-1.073.486-3.512-.028-4.253-1.104-1.592-6.282-.959-7.771.333-.694.601-.319 2.427.454 3.136M130.22 39.698c-.155 1.342 3.439 5.364 5.195 4.613.944-.403 2.714-1.768 2.757-2.65.093-1.894-3.827-4.511-5.722-4.754-.874-.111-2.128 1.913-2.23 2.791" transform="translate(30 46) translate(26.59 4.917)"/>
                                    <path fill="#FEC1B5" d="M110.349 28.454c.159-.379 1.766 1.121 2.684 1.748.412.281.831.285 1.301.27.566-.019 1.17-.066 1.583-.1.3-.025.503-.094.482-.212-.033-.191-.034-.282-.374-.443-.402-.19-1.447-.379-1.724-.6-.3-.238-.242-.33.083-.289.514.065 1.718.174 2.56.447.543.175.939.506 1.147.667.54.417.807.819 1.18 1.193L135 41.358c.626.407.75 1.274.266 1.86l-.911 1.1c-1.118 1.339-3.135 1.449-4.362.238 0 0-8.678-8.74-11.702-11.544-.289-.268-.676-.336-.945-.402-1.513-.367-3.314-.219-4.066-.663-.833-.492-3.096-3.103-2.932-3.493M154.217 10.165c.018 1.191.302 1.757.737 2.654.704 1.45 1.414 2.378 2.702 2.336 2.086-.067 4.307-2.669 4.26-5.787-.046-3.118-1.786-5.59-4.428-5.504-2.329.075-2.894 1.173-2.982 3.674-.028.814-.302 1.698-.289 2.627" transform="translate(30 46) translate(26.59 4.917)"/>
                                    <path fill="#616161" d="M164.323 4.045c-.214-1.455-1.141-2.548-2.39-2.112-.352-.926-1.106-1.447-1.905-1.698-1.195-.375-3.394-.334-5.43.363-1.164.398-1.676 1.134-.236.922-.604.241-1.325.83-1.697 1.283-.345.42-.889 1.695.397 1.617-.431 1.219.447 2.165 1.127 2.602.241.156.37.138.381-.186.043-1.15.229-1.763 1.171-2.198.89-.41 2.937-.439 4.327.381 1.437.847 1.465 3.414 1.364 4.235-.034.278-.954 1.55-2.212 1.591-.576.019-1.576-.38-2.33-.355-.695.023-.993.374-1.532.392-.806.026-.815-1.142-.978-1.202-.352-.128-1.103 1.449-1.068 3.82.03 2.016 1.536 3.856 3.39 3.796 2.146-.07 3.468-.921 4.428-2.157 1.16-1.491 1.305-3.52 1.054-5.358.555-.471 1.083-1.108 1.264-1.442.672-1.234 1.078-2.918.875-4.294" transform="translate(30 46) translate(26.59 4.917)"/>
                                    <path fill="#E8988C" d="M164.03 9.74c-.132 1.086-.987 2.177-1.522 2.028-.434-.121-.466-.871-.458-1.964.008-1.03.132-1.982.78-2.003.646-.021 1.36.632 1.2 1.94" transform="translate(30 46) translate(26.59 4.917)"/>
                                    <path fill="#FFF" d="M158.335 12.029c.001.088-.57.33-1.278.353-.709.023-1.287-.211-1.289-.334-.001-.082.574-.042 1.283-.065.708-.023 1.282-.058 1.284.046" transform="translate(30 46) translate(26.59 4.917)"/>
                                    <path fill="#29235C" d="M156.97 10.6l.005-.11-.14-.002c-.298-.001-.636-.003-.818-.166-.103-.092-.105-.267-.004-.536l.023-.06c.152-.407.478-1.253.342-1.779-.065-.25-.254-.429-.44-.48-.497-.14-1.03.027-1.525.28l.048.098c.477-.243 1.208-.358 1.606-.13.08.046.177.15.204.26.12.495-.19 1.318-.338 1.713l-.023.061c-.119.316-.108.53.033.656.212.19.572.192.89.193.047 0 .093 0 .137.002M160.231 7.65l.036-.12c-.532-.15-1.259-.216-1.578-.206h-.007c-.583.019-.9.156-1.206.29l-.02.009.048.114.02-.01c.309-.134.601-.26 1.16-.279h.006c.304-.01 1.028.057 1.541.202" transform="translate(30 46) translate(26.59 4.917)"/>
                                    <path fill="#616161" d="M158.282 8.469c.003.192.121.345.264.34.144-.005.257-.164.254-.357-.002-.192-.12-.344-.264-.34-.143.005-.257.165-.254.357M154.86 8.58c.002.193.12.345.264.34.143-.005.257-.164.254-.357-.003-.192-.121-.344-.264-.34-.144.005-.257.165-.255.357" transform="translate(30 46) translate(26.59 4.917)"/>
                                    <path fill="#29235C" d="M160.226 7.648l.046-.117c-.531-.2-1.02-.282-1.584-.263-.54.017-.924.129-1.244.361l.072.1c.298-.216.66-.32 1.173-.337.555-.018 1.015.059 1.537.256" transform="translate(30 46) translate(26.59 4.917)"/>
                                    <path fill="#FFF" d="M158.626 8.226c-.055.068-.067.148-.028.18.04.03.115 0 .17-.069.054-.068.066-.149.027-.18-.04-.03-.115 0-.17.069M155.203 8.337c-.054.068-.066.149-.027.18.04.03.115 0 .17-.069.054-.068.066-.149.027-.18-.04-.03-.115 0-.17.069" transform="translate(30 46) translate(26.59 4.917)"/>
                                    <path fill="#29235C" d="M159.343 8.465l.077-.087c-.66-.573-1.142-.276-1.319-.122l.075.087c.191-.167.597-.372 1.167.122M155.547 8.564l.101-.066c-.202-.314-.42-.36-.565-.344-.238.026-.412.223-.441.297l.111.042c.016-.039.158-.2.342-.22.164-.019.316.08.452.29" transform="translate(30 46) translate(26.59 4.917)"/>
                                    <path fill="#FFF" d="M154.065 19.108c.265-.473.836-.764 1.328-.764.481 0-.023.1-.209.839-.267 1.06.724 2.171 2.437 2.866 1.353-.176 4.042-2.191 5.457-3.788.095-.108.885-.37 1.15.381.63 2.5-3.373 4.957-5.204 6.154l-1.505-2.424-2.325 1.773c-.718-.8-1.36-2.096-1.457-3.174-.05-.564.036-1.342.328-1.863" transform="translate(30 46) translate(26.59 4.917)"/>
                                    <path fill="#E8988C" d="M155.972 18.31c2.643.94 4.602-1.074 5.431-2.4.604-.966.995-1.837 1.098-2.834.054-.515.053-1.034.028-1.547-.02-.41-.058-.814-.099-1.208.04-.032.08-.063.122-.093l.012-.692c-.136.13-.278.254-.422.369.19 1.846-.02 3.87-1.228 5.325-1 1.204-2.348 2.012-4.494 2.012-.042 0-.083-.001-.124-.003-.029.235-.06.45-.091.642-.028.17-.113.32-.233.429" transform="translate(30 46) translate(26.59 4.917)"/>
                                    <path fill="#FEC1B5" d="M160.445 43.74l-.725-1.177c.63-.03 1.778.036 2.286.246.376.156.968.5 1.56.761.24.107.5.166.765.176l16.994.665c1.086.048 1.88 1.018 1.714 2.095-.275 1.778-2.018 2.962-3.762 2.556 0 0-10.95-2.61-14.277-3.322-.54-.116-1.31-.118-1.777-.02-1.307.275-3.6 1.078-4.34.964-.709-.11-4.854-1.216-4.251-2.448.117-.238 5.813-.496 5.813-.496" transform="translate(30 46) translate(26.59 4.917)"/>
                                    <path fill="#10A310" d="M158.416 40.445L154.01 40.942 156.038 44.236 160.445 43.74z" transform="translate(30 46) translate(26.59 4.917)"/>
                                    <path fill="#1D1D1B" d="M149.12 92.728c4.79 0 8.673 6.481 8.673 14.477s-3.883 14.478-8.673 14.478h-8.39V92.728h8.39z" transform="translate(30 46) translate(26.59 4.917)"/>
                                    <path fill="#1D1D1B" d="M132.057 107.205c0 7.996 3.883 14.478 8.673 14.478s8.673-6.482 8.673-14.478c0-7.996-3.883-14.477-8.673-14.477s-8.673 6.481-8.673 14.477" transform="translate(30 46) translate(26.59 4.917)"/>
                                    <path fill="#3C3C3B" d="M134.471 107.205c0 5.997 2.802 10.859 6.26 10.859 3.456 0 6.258-4.862 6.258-10.859s-2.802-10.858-6.259-10.858c-3.457 0-6.259 4.861-6.259 10.858" transform="translate(30 46) translate(26.59 4.917)"/>
                                    <path fill="#1D1D1B" d="M12.466 111.04s-7.246.277-9.357 0c-.9-.119-2.592-1.382-2.592-1.382-.075-.448-.144-.901-.203-1.36-1.45-11.117 2.262-20.74 8.29-21.493 6.028-.753 12.09 7.65 13.54 18.767.244 1.877.34 3.711.305 5.467h-9.983z" transform="translate(30 46) translate(26.59 4.917)"/>
                                    <path fill="#1D1D1B" d="M20.414 92.728c4.79 0 8.673 6.481 8.673 14.477s-3.883 14.478-8.673 14.478h-8.39V92.728h8.39z" transform="translate(30 46) translate(26.59 4.917)"/>
                                    <path fill="#3C3C3B" d="M3.351 107.205c0 7.996 3.883 14.478 8.673 14.478s8.673-6.482 8.673-14.478c0-7.996-3.883-14.477-8.673-14.477s-8.673 6.481-8.673 14.477" transform="translate(30 46) translate(26.59 4.917)"/>
                                    <path fill="#878787" d="M5.765 107.205c0 5.997 2.802 10.859 6.259 10.859 3.457 0 6.259-4.862 6.259-10.859s-2.802-10.858-6.259-10.858c-3.457 0-6.259 4.861-6.259 10.858" transform="translate(30 46) translate(26.59 4.917)"/>
                                    <path fill="#1D1D1B" d="M82.086 92.728c4.79 0 8.673 6.481 8.673 14.477s-3.883 14.478-8.673 14.478h-8.39V92.728h8.39z" transform="translate(30 46) translate(26.59 4.917)"/>
                                    <path fill="#1D1D1B" d="M65.023 107.205c0 7.996 3.883 14.478 8.673 14.478s8.673-6.482 8.673-14.478c0-7.996-3.883-14.477-8.673-14.477s-8.673 6.481-8.673 14.477" transform="translate(30 46) translate(26.59 4.917)"/>
                                    <path fill="#3C3C3B" d="M67.438 107.205c0 5.997 2.802 10.859 6.258 10.859 3.457 0 6.259-4.862 6.259-10.859s-2.802-10.858-6.259-10.858c-3.456 0-6.258 4.861-6.258 10.858" transform="translate(30 46) translate(26.59 4.917)"/>
                                    <path fill="#1D1D1B" d="M67.052 113.196c-.418-1.437-.738-2.95-.943-4.521-1.422-10.91 3.222-20.478 10.374-21.37 7.15-.894 13.792 7.27 15.523 18.136.475 2.98.68 5.544.656 7.755h-25.61z" transform="translate(30 46) translate(26.59 4.917)"/>
                                    <path fill="#1D1D1B" d="M87.448 92.728c4.79 0 8.673 6.481 8.673 14.477s-3.883 14.478-8.673 14.478h-8.39V92.728h8.39z" transform="translate(30 46) translate(26.59 4.917)"/>
                                    <path fill="#3C3C3B" d="M70.385 107.205c0 7.996 3.883 14.478 8.673 14.478s8.673-6.482 8.673-14.478c0-7.996-3.883-14.477-8.673-14.477s-8.673 6.481-8.673 14.477" transform="translate(30 46) translate(26.59 4.917)"/>
                                    <path fill="#878787" d="M72.8 107.205c0 5.997 2.801 10.859 6.258 10.859 3.456 0 6.258-4.862 6.258-10.859s-2.802-10.858-6.258-10.858c-3.457 0-6.259 4.861-6.259 10.858" transform="translate(30 46) translate(26.59 4.917)"/>
                                </g>
                                <g transform="translate(30 46) translate(24.606 58.487)">
                                    <mask id="ldptxrsdxg" fill="#fff">
                                        <use xlink:href="#bv49otynoe"/>
                                    </mask>
                                    <path fill="url(#u2yfbjyxmf)" d="M55.96.496c-5.73.425-11.512.916-17.13 2.135-5.532 1.2-10.859 3.258-15.778 6.005-5.02 2.803-9.202 6.587-13.884 9.845-.654.455-1.32.894-2.004 1.305-.566.34-.94.383-1.549.563-1.11.326-1.495 1.169-2.207 1.965-.858.959-1.763 1.372-2.056 2.722-.234 1.08-.208 2.236-.137 3.331.094 1.448.424 2.63-.295 3.986-.543 1.023-.87 2.03-.906 3.208-.081 2.592 1.135 5.183.433 7.741C-.396 46.38.16 49.05.445 51.896c.114 1.144.018 2.193.778 3.131.616.76 1.134 1.057 2.103 1.615.62.359 1.63 1.08 1.422-.107-.52-2.954-1.169-6.2-.06-11.541.648-3.116 3.063-8.368 7.297-8.7 3.383-.267 5.918 3.81 7.164 6.132 1.359 2.534 2.084 5.286 2.565 8.108.862 5.068-.213 8.44.14 8.848.174.2.418.244.687.244H71.196c-.571-2.178-1.38-4.44-1.38-9.635 0-4.3 1.398-9.645 5.001-12.437 2.074-1.607 8.212-3.092 12.761 3.605 1.437 2.116 3.266 6.343 3.92 9.46.729 3.463 1.042 6.919 1.078 9.964H161.21c.27 0 .531-.011.8-.12.36-.145.537-.43.826-.664.362-.29.67-.266 1.044-.473.911-.504 1.523-2.296 1.746-3.24.304-1.284.05-2.58-.07-3.871-.195-2.091.373-5.564.226-9.37-.052-1.323-.133-3.095-1.28-3.878-.215-.147-.876-.678-1.028-.913-.583-.893-.156-2.323-.307-3.334-.163-1.091-1.135-2.13-2.01-2.768-1.018-.741-1.784-1.19-2.917-1.731-1.135-.543-2.465-.972-3.68-1.502-1.204-.525-2.28-.859-3.397-1.529-1.022-.613-1.947-1.214-2.981-1.816-2.929-1.708-7.416-3.446-12.102-4.425-1.168-.244-2.376-.848-3.164-1.404C129.802 17.352 117.41 8.59 110.218 5.4c-2.607-1.156-4.956-2.069-7.877-2.789-2.679-.66-5.324-1.214-8.124-1.509C88.018.45 80.033.008 73.829 0h-.823c-5.688 0-11.37.075-17.046.496" mask="url(#ldptxrsdxg)"/>
                                </g>
                                <g>
                                    <path fill="#10A310" d="M.014 35.56c.037-1.177.363-2.184.906-3.207.72-1.356.389-2.538.295-3.986-.071-1.095-.097-2.251.137-3.331.293-1.35 1.198-1.763 2.056-2.722.712-.796 1.097-1.639 2.207-1.965.61-.18.983-.222 1.55-.563.683-.411 1.35-.85 2.003-1.305 4.682-3.258 8.864-7.042 13.884-9.845C27.97 5.89 33.298 3.832 38.83 2.631 44.448 1.412 50.229.921 55.96.496 61.911.056 67.866-.007 73.83 0c6.203.008 14.188.449 20.387 1.101 2.8.295 5.445.849 8.124 1.51 2.92.72 5.27 1.632 7.877 2.788 7.192 3.191 19.584 11.953 22.699 14.146.788.555 1.996 1.16 3.164 1.404 4.686.98 9.173 2.717 12.102 4.425 1.034.602 1.959 1.203 2.981 1.816 1.118.67 2.193 1.004 3.397 1.53 1.215.53 2.545.958 3.68 1.5 1.132.543 1.899.99 2.917 1.732.875.638 1.847 1.677 2.01 2.768.151 1.011-.276 2.44.307 3.334.152.234.813.766 1.028.913 1.147.783 1.228 2.555 1.28 3.877.147 3.807-.421 7.28-.226 9.37.12 1.291.373 2.588.07 3.872-.223.944-.835 2.735-1.746 3.24-.375.207-.682.183-1.044.473-.29.233-.466.519-.825.664-.27.11-.532.12-.802.12H92.576c-.037-3.045-.35-6.5-1.077-9.964-.655-3.117-2.484-7.344-3.92-9.46-4.55-6.696-10.688-5.212-12.761-3.605-3.604 2.792-5.002 8.136-5.002 12.437 0 5.195.809 7.457 1.38 9.635H22.542c-.27 0-.514-.044-.687-.244-.353-.409.722-3.78-.14-8.848-.48-2.822-1.206-5.574-2.565-8.108-1.246-2.323-3.78-6.399-7.163-6.133-4.235.333-6.65 5.585-7.297 8.7-1.11 5.342-.46 8.588.059 11.542.209 1.187-.801.466-1.422.107-.97-.558-1.487-.855-2.103-1.615-.76-.938-.664-1.987-.778-3.13-.285-2.848-.841-5.518.002-8.595.702-2.558-.515-5.149-.433-7.741" transform="translate(30 46) translate(24.606 58.487)"/>
                                    <path fill="#28C72D" d="M126.063 15.405c.713.533 4.015 2.627 4.703 3.125.547.395 1.62 1.188 2.25.386 1.06-1.353-.901-3.216-2.006-3.78-1.417-.725-3.135-.908-4.72-.872-1.317.03-1.275.356-.227 1.14" transform="translate(30 46) translate(24.606 58.487)"/>
                                    <path fill="#858585" d="M62.646 5.968c2.088 1.85 10.203 9.919 12.188 12.064.735.795 1.649 2.104 2.604 2.614.93.496 2.178.23 3.19.246 2.617.041 10.126-1.321 27.108-1.376 5.168-.016 15.869.244 21.529.633 1.856.128-.167-1.459-.848-2.041-3.272-2.799-10.403-7.489-12.529-8.8-2.202-1.359-4.694-2.716-7.065-3.775-3.085-1.378-4.062-1.748-6.76-2.083-2.437-.302-6.066-.55-8.658-.618-11.873-.311-22.456-.164-33.147.993 1.075.891 2.085 1.876 2.388 2.143" transform="translate(30 46) translate(24.606 58.487)"/>
                                </g>
                                <g transform="translate(30 46) translate(111.755 89.579)">
                                    <mask id="h1crmgjsnj" fill="#fff">
                                        <use xlink:href="#3n2fun2mmh"/>
                                    </mask>
                                    <path fill="url(#7ewvann55i)" d="M7.722.04C6.38.15 5.055.398 3.742.681c-.404.088-3.828.791-3.74 1.17.09.39.622.982.899 1.252.827.805 2.273 1.973 3.27 2.565 2.32 1.378 4.546 1.951 7.203 2.396 4.849.811 10.124 1.161 15.143 1.24 2.515.04 4.29-.986 6.408-2.233 1.174-.692 2.603-1.302.928-1.727-1.114-.283-12.878-3.074-18.12-4.246C13.52.605 11.036 0 8.707 0c-.332 0-.661.012-.986.04" mask="url(#h1crmgjsnj)"/>
                                </g>
                                <g>
                                    <path fill="#F6F6F6" d="M152.51 34.46c.623.658 1.047 1.172 1.661 1.783 1.5 1.492 2.091-2.512 2.136-3.537.064-1.463.208-2.717-.957-3.775-.534-.484-1.657-1.4-2.286-1.64-.687-.263-.468 1.686-.554 2.454-.077.687-.3 1.492-.69 2.045-.224.317-.627.735-.627 1.087-.002.415.816 1.054 1.317 1.583" transform="translate(30 46) translate(31.633 62.313)"/>
                                    <path fill="#1D1D1B" d="M114.92 40.837c.956 1.534 5.29 7.212 6.823 8.868.843.91 1.912 1.733 3.743 1.733h21.86c1.51 0 2.996-.753 3.487-1.584.854-1.447 2.654-5.273 3.234-6.846.737-1.998 1.108-3.782.625-4.748-.697-1.398-2.424-3.725-3.618-4.699-1.21-.986-2.164-.762-3.918-.655-3.49.215-5.956.182-9.673.182-4.08 0-9.413-.213-13.153-.33-2.15-.066-3.815.268-4.85.879-1.36.802-2.784 2.054-3.912 3.124-1.265 1.2-1.65 2.467-.648 4.076" transform="translate(30 46) translate(31.633 62.313)"/>
                                    <path fill="#9D9D9C" d="M128.217 47.815h19.447c.312 0 .564-.252.564-.563v-4.678c0-.31-.252-.563-.564-.563h-19.447c-.312 0-.564.253-.564.563v4.678c0 .311.252.563.564.563" transform="translate(30 46) translate(31.633 62.313)"/>
                                    <path fill="#1D1D1B" d="M92.104 49.512c.105.59.695 1.334 1.298 1.827.654.535 1.488 1.062 2.752 1.288 1.404.25 12.162 1.48 13.671 1.617 1.045.096 2.779.318 3.393-.254.19-.177.254-.443-.019-.493-2.987-.555-11.777-2.055-13.22-2.42-.995-.252-1.84-.784-1.997-1.305-.502-1.659.335-2.632 1.275-3.992.872-1.265 1.652-2.488 2.477-3.784.154-.242.124-.484-.232-.484-1.676 0-3.513-.097-4.567.762-1.146.933-2.873 3.153-3.563 4.089-.78 1.058-1.511 1.786-1.268 3.15M156.554 54.363c1.092-.649 1.481-1.98 1.714-3.037.13-.59.207-1.327.261-1.932.074-.83.295-7.625.295-7.625 0-.158-.125-.38-.33-.379-.483.002-.942.097-1.377.28-.139.058-.555.357-.544.755.052 1.876.092 3.204.103 5.041.006 1.01.038 2.085-.087 3.053-.14 1.082-.759 2.452-.878 2.887-.156.57.073 1.413.843.957" transform="translate(30 46) translate(31.633 62.313)"/>
                                    <path fill="#575756" d="M92.889 47.976c0 .753.579 1.363 1.293 1.363.715 0 1.294-.61 1.294-1.363s-.58-1.363-1.294-1.363c-.714 0-1.293.61-1.293 1.363" transform="translate(30 46) translate(31.633 62.313)"/>
                                    <path fill="#EDEDED" d="M156.673 47.113l.004.353c.002.454.01.921.005 1.385.239.3.595.488.993.488.34 0 .649-.138.88-.367.253-.247.412-.602.412-.995 0-.35-.123-.667-.328-.907-.236-.28-.58-.457-.964-.457-.404 0-.765.195-1.002.5M93.475 47.976c0 .753.579 1.363 1.293 1.363s1.294-.61 1.294-1.363-.58-1.363-1.294-1.363c-.714 0-1.293.61-1.293 1.363" transform="translate(30 46) translate(31.633 62.313)"/>
                                    <path fill="#0B7A07" d="M.012 20.49c.197.302 2.195.434 2.543.472 1.225.133 21.845 2.189 27 2.766 4.448.498 8.935 1.225 13.321 2.164 4.276.916 8.277 2.17 12.57 2.976 2.09.392 4.223.443 6.427.375 1.767-.054 4.309-.245 4.307-1.425-.002-1.048-4.575-1.479-5.572-1.623-2.24-.323-4.521-.514-6.765-.81-8.911-1.173-43.936-4.66-52.512-5.054-.348-.016-1.459-.057-1.319.158M16.281 44.427c.107.509 5.464.806 7.083.93 3.698.286 33.105 2.599 34.488 2.582.37-.004 1.604.12 1.85-.227.776-1.093-5.29-1.787-5.943-1.866-6.395-.773-25.443-2.565-28.566-2.795-1.602-.117-3.199-.21-4.799-.016-1.193.144-4.233.819-4.113 1.392" transform="translate(30 46) translate(31.633 62.313)"/>
                                    <path fill="#FFF" d="M93.38 31.742c0-.852.565-1.542 1.263-1.542s1.263.69 1.263 1.542c0 .852-.565 1.543-1.263 1.543s-1.263-.691-1.263-1.543m-.897 0c0 1.456.967 2.637 2.16 2.637s2.16-1.18 2.16-2.637c0-1.456-.967-2.636-2.16-2.636s-2.16 1.18-2.16 2.636" transform="translate(30 46) translate(31.633 62.313)"/>
                                    <path fill="#FFF" d="M87.914 32.19c.707 1.055 1.528 1.934 2.792 2.265 2.573.674 5.33.833 8.042 1.092 2.561.246 5.144.42 7.71.498.337.01 1.396.002 1.068-.247-.35-.265-1.227-.281-2.175-.35-2.835-.202-5.674-.492-8.475-.867-2.052-.275-4.56-.384-6.342-1.548-.868-.567-3.526-4.057-1.571-4.261.549-.057 3.482-.03 3.57-.388.076-.31-2.755-.488-3.14-.493-1.6-.023-3.297-.033-2.873 1.594.248.952.866 1.916 1.394 2.705" transform="translate(30 46) translate(31.633 62.313)"/>
                                    <path fill="#0B7A07" d="M49.822 19.915c6.191.547 9.667 1.145 13.222 1.174 2.088.017 6.062.03 8.151-.005 1.778-.03 5.867-.044 8.927.403 11.688 1.705 20.7 3.806 29.768 6.729 4.46 1.437 7.898 3.444 7.303 2.779-1.084-1.212-10.36-4.994-12.303-5.637-10.376-3.433-17.356-5.041-24.38-6.253-3.789-.654-7.821-1.307-11.661-1.517-1.878-.102-16.232-1.054-18.116-1.135-12.052-.52-33.6-1.171-34.01-.455-.578 1.006 24.179 3.13 33.1 3.917" transform="translate(30 46) translate(31.633 62.313)"/>
                                    <path fill="#858585" d="M13.658 14.766c.925.561 1.85.974 2.897 1.28.956.28 2.154.378 3.147.46 4.794.392 9.588.776 14.387 1.103 4.327.294 18.942 1.466 22.697 1.45.82-.004 1.685-.075 2.504-.168 1.054-.12 2.103-.278 3.146-.475.667-.126 2.226-.393 2.628-.983.476-.7-2.122-3.285-2.71-3.903-2.637-2.778-5.295-5.779-8.23-8.385-2.657-2.359-5.546-4.39-9.163-4.867-4.173-.55-8.347-.214-12.485.405-4.05.606-7.676 1.88-11.402 3.589-3.702 1.696-10.095 5.721-10.572 6.196-1.171 1.163 2.559 3.935 3.156 4.298" transform="translate(30 46) translate(31.633 62.313)"/>
                                </g>
                                <g transform="translate(30 46) translate(119.448 65.13)">
                                    <mask id="acwzvnbzsm" fill="#fff">
                                        <use xlink:href="#uipt53ssck"/>
                                    </mask>
                                    <path fill="url(#fy9edkvttl)" d="M.087.553c1.189 2.04 3.299 6.032 4.375 8.31.14.297.568.226.675.174 2.054-.985 5.721-1.154 6.951.808.078.124.065.297.264.297 2.822-.005 5.694.188 8.422.97 1.239.355 2.429.988 3.739.988l4.005.001c.315 0 .092-.442-.124-.65-1.832-1.775-8.747-6.143-12.708-7.854C11.043 1.592 6.62.197.406.001L.373 0C-.11 0-.025.36.087.553" mask="url(#acwzvnbzsm)"/>
                                </g>
                                <g transform="translate(30 46) translate(124.217 74.633)">
                                    <mask id="yqe197260p" fill="#fff">
                                        <use xlink:href="#867w2jps5n"/>
                                    </mask>
                                    <path fill="url(#fbst08ap4o)" d="M.202.692C.1.758-.048.849.016 1.006c.096.235.364 1.11.447 1.334.051.14.176.147.294.148.39.003 1.99.05 2.27-.057.458-.174.43-.88.646-1.18.138-.192.423-.293.704-.363.548-.137.195-.351.008-.47C3.923.124 3.335 0 2.728 0 1.812 0 .851.282.202.692" mask="url(#yqe197260p)"/>
                                </g>
                                <g transform="translate(30 46) translate(95.669 65.486)">
                                    <mask id="wokz019aqs" fill="#fff">
                                        <use xlink:href="#lhmg89va8q"/>
                                    </mask>
                                    <path fill="url(#pvnje4av7r)" d="M15.95.03C10.256.462 5.73 1.588.447 5.079c-.36.238-.74.542-.108 1.19 1.809 1.857 4.876 5.025 5.782 5.915.558.548 1.037.619 1.824.559 5.082-.385 8.155-.653 13.03-.876.655-.03.571-.291.432-.744-.664-2.156-3.834-9.944-4.258-10.618C16.888.09 16.712 0 16.409 0c-.126 0-.274.015-.459.03M4.858 8.255l.676-3.61c.09-.475.583-.85 1.104-.85h7.267c.522 0 .981.375 1.029.85l.356 3.61c.06.604-.387 1.109-1 1.109H5.76c-.613 0-1.015-.505-.902-1.11" mask="url(#wokz019aqs)"/>
                                </g>
                                <g transform="translate(30 46) translate(71.52 65.427)">
                                    <mask id="vqh58avr9v" fill="#fff">
                                        <use xlink:href="#fmho23lgmt"/>
                                    </mask>
                                    <path fill="url(#q97fvtbr1u)" d="M1.109.817c-.323.81-.43 1.832-.619 2.685C.272 4.49.16 5.414.015 6.415c-.127.885.59 1.217.812.874.321-.493.465-1.011.63-1.499.208-.61.568-2.223 1.532-2.223 1.314 0 3.937.012 4.717.053.979.052 1.593.304 2.127 1.111.275.417.43 1.166.831 1.457.528.383 1.088-.057 1.346-.244.274-.2 1.501-1.26 1.752-1.466.09-.075.223-.191.286-.29.145-.226-.126-.472-.265-.603-1.327-1.245-2.953-2.337-4.78-2.94-2.124-.7-4.862-.562-6.71-.643L2.226 0c-.543 0-.915.305-1.118.817" mask="url(#vqh58avr9v)"/>
                                </g>
                                <g transform="translate(30 46) translate(46.247 65.953)">
                                    <mask id="0noonwg9ay" fill="#fff">
                                        <use xlink:href="#86nt6vdhhw"/>
                                    </mask>
                                    <path fill="url(#1jpr04mvpx)" d="M19.844.006C14.908.926 12.87 1.728 9.336 3.24 5.727 4.787 1.93 7.409.211 8.857c-.442.372-.117.739.315.739 1.238 0 5.265.031 6.349.031.226 0 .469-.162.54-.434.136-.51.19-.833.319-1.346.136-.541.375-1.512 1.382-1.512.702 0 3.868.088 5.129.088.641 0 1.67-.13 2.01.738.303.771.415 2.294.483 3.386.022.36.282.766.57.651.162-.064.316-.787.491-1.622.333-1.59 1.277-5.361 2.333-9.116.07-.251-.028-.46-.228-.46-.02 0-.039.002-.06.006" mask="url(#0noonwg9ay)"/>
                                </g>
                                <g>
                                    <path fill="#FFF" d="M16.52 10.931c.086-.085.363-.285.78-.564-.797 1.227 2.64 3.82 3.207 4.17.91.561 1.795.956 2.826 1.262.94.28 2.143.397 3.12.478 4.716.392 9.433.776 14.154 1.103 4.258.294 18.638 1.466 22.332 1.45.806-.004 1.658-.075 2.463-.168 1.037-.12 2.07-.277 3.095-.475.633-.121 2.076-.374 2.535-.92.115.266.147.487.05.63-.402.59-1.96.856-2.628.983-1.042.197-2.092.355-3.146.475-.818.093-1.684.164-2.504.167-3.754.016-18.37-1.155-22.697-1.45-4.799-.327-9.593-.71-14.386-1.103-.993-.08-2.191-.18-3.147-.46-1.048-.305-1.973-.718-2.897-1.28-.598-.362-4.328-3.134-3.157-4.298" transform="translate(30 46) translate(25.615 61.849)"/>
                                    <path fill="#28C72D" d="M57.091 19.388c1.27.161 3.714.363 4.809-.444.94-.693 1.398-2.017 1.303-3.126-.108-1.27-.68-2.5-1.613-3.366-1.09-1.012-2.713-.885-4.145-.795-2.063.128-7.123 1.012-7.583 3.428-.658 3.465 4.876 4.003 7.229 4.303" transform="translate(30 46) translate(25.615 61.849)"/>
                                    <path fill="#DADADA" d="M76.228 43.826c.12-.21.439-.12.428.122-.01.227-.015.456-.015.687 0 5.097 2.382 9.23 5.32 9.23 1.036 0 2.003-.516 2.82-1.406.151-.164.426-.026.392.194-.605 3.943-2.676 6.85-5.14 6.85-2.938 0-5.32-4.133-5.32-9.23 0-2.51.579-4.783 1.515-6.447M9.195 43.826c.119-.21.438-.12.427.122-.01.227-.015.456-.015.687 0 5.097 2.382 9.23 5.32 9.23 1.036 0 2.003-.516 2.82-1.406.151-.164.426-.026.393.194-.605 3.943-2.677 6.85-5.14 6.85-2.938 0-5.32-4.133-5.32-9.23 0-2.51.578-4.783 1.515-6.447" transform="translate(30 46) translate(25.615 61.849)"/>
                                    <path fill="#383838" d="M155.018 33.047c.083 0 .156-.058.172-.142.34-1.82-.14-3.682-1.425-5.535-3.31-4.773-11.822-8.982-21.684-10.723-.095-.018-.186.046-.203.141-.017.095.046.186.142.203 9.775 1.726 18.198 5.879 21.458 10.578 1.23 1.773 1.69 3.547 1.368 5.271-.018.095.044.187.14.204.01.002.021.003.032.003M8.2 23.176c-.355 1.319-.324 2.618.08 3.31.14.238.312.385.513.437.815.21 1.917-1.153 2.408-2.976.355-1.32.324-2.619-.08-3.311-.139-.238-.312-.385-.513-.437-.056-.014-.113-.021-.17-.021-.792 0-1.78 1.299-2.238 2.998m.506 4.082c-.29-.075-.54-.282-.725-.598-.455-.78-.5-2.15-.116-3.574.559-2.072 1.802-3.488 2.83-3.222.29.075.54.282.725.598.455.78.5 2.15.116 3.575-.514 1.904-1.605 3.253-2.576 3.253-.086 0-.17-.01-.254-.032M43.285 27.616c.56 0 .998-.285 1.175-.77.033-.089-.013-.188-.103-.221s-.19.013-.222.103c-.062.168-.27.562-.888.54-1.918-.055-2.419-.083-3.858-.284-1.15-.161-1.597-.417-1.597-.91 0-.096-.078-.174-.174-.174-.096 0-.173.078-.173.173 0 .869.911 1.116 1.896 1.254 1.456.203 1.962.232 3.896.288h.048M19.547 25.275h.09c.285-.002.537-.051.746-.149.255-.118.442-.355.501-.632.02-.094-.04-.187-.135-.207-.095-.02-.188.04-.208.135-.036.17-.15.315-.306.387-.163.076-.365.115-.6.116-1.11.002-2.113-.092-3.215-.21l-.022-.003c-.507-.054-1.08-.115-1.313-.465-.054-.08-.162-.103-.243-.049-.08.053-.102.162-.049.242.324.487 1.013.56 1.567.62l.022.002c1.083.117 2.071.213 3.165.213M97.353 28.118c.095 0 .172-.076.174-.17.018-1.279-.479-1.469-1.108-1.71l-.067-.025c-4.942-1.905-11.74-3.589-15.393-4.494-.787-.194-1.408-.348-1.804-.454-.32-.085-.543-.428-.574-.512-.375-1.02-.554-1.818-.616-2.758-.013-.197.062-.3.258-.356.092-.027.145-.122.119-.214-.027-.092-.123-.145-.215-.119-.35.101-.532.354-.508.712.065.975.25 1.802.637 2.854.065.178.36.608.81.728.399.106 1.021.26 1.81.455 3.645.903 10.43 2.584 15.351 4.48l.068.027c.599.229.9.344.885 1.38-.002.096.075.174.17.176h.003zM112.799 37.209c2.52 0 4.299-1.048 6.354-2.258.147-.087.297-.172.445-.255.774-.438 1.386-.783 1.33-1.198-.035-.261-.31-.444-.892-.591-.092-.024-.187.032-.21.125-.024.093.032.187.125.21.607.154.633.296.634.302.024.183-.687.585-1.157.85-.15.085-.303.171-.451.258-2.011 1.185-3.754 2.21-6.18 2.21h-.137c-5.656-.09-10.742-.506-15.117-1.238-2.63-.44-4.852-1.012-7.143-2.373-1.009-.6-2.439-1.763-3.238-2.541-.287-.28-.731-.794-.838-1.118.113-.092.679-.392 3.502-.991l.093-.02c1.164-.25 2.544-.523 3.957-.64.095-.007.166-.091.159-.186-.008-.095-.089-.166-.187-.159-1.433.118-2.828.393-4.002.647l-.092.02c-3.471.736-3.67 1.047-3.744 1.164-.05.077-.048.148-.037.194.12.52.863 1.255.947 1.337.814.792 2.272 1.978 3.302 2.59 2.338 1.389 4.595 1.97 7.264 2.418 4.392.735 9.496 1.153 15.169 1.242l.144.001" transform="translate(30 46) translate(25.615 61.849)"/>
                                    <path fill="#383838" d="M27.174 52.328h42.037c.096 0 .173-.078.173-.173 0-.096-.077-.174-.173-.174H27.174c-3.2 0-3.61-1.085-4.083-2.342l-.043-.114c-.325-.857-.684-2.29-1.032-3.677-.272-1.085-.553-2.207-.815-3.036-.757-2.402-1.967-4.864-3.236-6.587-.277-.376-.573-.755-.887-1.155-1.029-1.314-2.093-2.673-2.547-4.061-.825-2.52-1.113-5.358-.935-9.2.038-.827.268-1.652.49-2.448.197-.707.4-1.436.467-2.16l.006-.068c.245-2.632.422-4.534 1.971-5.943.071-.065.076-.174.011-.245-.064-.07-.174-.076-.245-.011-1.648 1.499-1.83 3.457-2.082 6.167l-.006.067c-.064.694-.255 1.377-.456 2.1-.228.815-.463 1.659-.503 2.525-.18 3.885.114 6.76.952 9.323.473 1.446 1.556 2.83 2.604 4.167.312.399.606.775.88 1.148 1.248 1.693 2.439 4.117 3.185 6.485.259.819.539 1.936.81 3.016.35 1.396.711 2.84 1.043 3.716l.043.113c.498 1.32.968 2.567 4.408 2.567" transform="translate(30 46) translate(25.615 61.849)"/>
                                    <path fill="#383838" d="M38.374 52.328l.02-.001c.095-.011.164-.097.153-.192-.037-.324-.086-.708-.14-1.127-.185-1.452-.416-3.26-.383-4.37.007-.242.086-.623.17-1.027.112-.539.24-1.15.25-1.669.027-1.32-1.119-8.359-1.35-9.757-.352-2.142-.245-6.627-.017-8.774.07-.653.07-1.285.072-1.897 0-.718.002-1.461.114-2.246.187-1.316 1.064-2.564 1.807-3.504.06-.075.046-.184-.029-.243-.075-.06-.184-.046-.243.028-.77.975-1.68 2.273-1.879 3.67-.115.81-.116 1.564-.117 2.295-.001.602-.002 1.225-.07 1.86-.23 2.166-.336 6.697.02 8.868.634 3.846 1.366 8.693 1.345 9.693-.01.486-.133 1.081-.242 1.606-.091.437-.17.814-.178 1.087-.033 1.137.2 2.96.386 4.424.053.417.102.8.14 1.122.01.089.084.154.171.154M66.504 52.328l.018-.001c.095-.01.164-.096.154-.19-.764-7.206-.563-11.969-.141-19.767.01-.19.045-.53.085-.926.097-.949.23-2.248.19-3.02-.006-.126-.023-.292-.043-.485-.066-.638-.165-1.603-.004-2.381.273-1.316.716-2.624 1.144-3.89.328-.967.667-1.968.929-2.968.024-.093-.031-.188-.124-.212-.092-.023-.187.031-.212.124-.259.99-.595 1.984-.921 2.945-.432 1.276-.878 2.595-1.155 3.93-.173.831-.07 1.828-.002 2.487.02.188.036.35.042.468.038.745-.093 2.03-.19 2.967-.042.416-.075.744-.086.943-.422 7.815-.624 12.59.143 19.82.01.09.085.156.173.156M102.55 43.267c.046 0 .09-.017.124-.052.551-.56 1.055-.818 1.924-.99.47-.092 2.474-.14 4.41-.187l1.504-.038c.496-.013 1.004-.022 1.513-.03 2.279-.039 4.635-.079 5.894-.577 1.282-.507 1.778-1.277 2.303-2.093.178-.277.362-.562.584-.853.058-.076.043-.185-.033-.243-.076-.058-.185-.043-.243.033-.23.302-.418.594-.6.875-.515.801-.96 1.493-2.138 1.96-1.201.474-3.525.514-5.772.551-.51.009-1.02.018-1.517.031l-1.503.038c-2.041.049-3.97.096-4.47.194-.934.184-1.504.479-2.103 1.087-.067.068-.066.177.002.244.034.033.078.05.122.05M160.817 37.21c.088 0 .176-.017.263-.05 1.04-.406 1.388-3.29 1.419-3.983.004-.095-.07-.176-.166-.18-.1-.003-.177.07-.18.165-.041.93-.458 3.386-1.2 3.675-.068.027-.278.109-.641-.253-.364-.362-.66-.69-.975-1.037-.212-.234-.431-.477-.683-.742-.131-.139-.285-.286-.434-.429-.372-.356-.836-.8-.835-1.035 0-.214.232-.513.418-.753.064-.083.125-.161.177-.235.36-.511.63-1.305.72-2.125.023-.204.026-.482.028-.776.004-.526.011-1.407.207-1.54.008-.006.026-.018.085.004.089.034.19-.01.224-.1.034-.09-.01-.19-.1-.224-.188-.072-.324-.021-.405.034-.321.219-.35.864-.358 1.824-.002.285-.004.554-.025.74-.085.764-.332 1.498-.66 1.964-.049.07-.107.144-.167.221-.23.297-.491.634-.491.965-.002.383.457.822.942 1.287.153.145.297.283.422.416.25.263.467.503.678.736.317.35.617.682.987 1.05.255.254.506.38.75.38" transform="translate(30 46) translate(25.615 61.849)"/>
                                    <path fill="#BF5059" d="M.366 25.362c1.262 0 1.933.031 2.562-.435.768-.569 1.291-1.254 2.06-1.858.568-.447 1.847-1.336 1.568-2.037-.234-.59-2.065-1.571-2.706-1.899-.469-.24-.934-.541-1.471-.318-.338.14-.794.643-1.013.856-.781.757-1.347 1.537-1.347 2.617 0 .964-.142 3.074.347 3.074" transform="translate(30 46) translate(25.615 61.849)"/>
                                    <g transform="translate(30 46) translate(25.615 61.849) translate(68.561)">
                                        <mask id="sl25cj5ivB" fill="#fff">
                                            <use xlink:href="#ri8xmswkfz"/>
                                        </mask>
                                        <path fill="url(#quhhfngcjA)" d="M2.03 3.28C3.687 4.637 6.49 4.47 8.58 4.56c4.515.192 7.108.274 11.603.975 4.01.625 16.153 4.231 17.958 4.82 1.93.63 12.198 3.437 12.911 1.608.666-1.708-3.153-4.22-4.366-4.956-2.951-1.794-5.86-3.355-9.016-4.832C35.573 1.193 33.832.838 31.392.57 27.175.107 7.15-.472.49.64-.811.858.749 2.23 2.03 3.28" mask="url(#sl25cj5ivB)"/>
                                    </g>
                                </g>
                            </g>
                        </g>
                    </g>
                </g>
            </g>
        </g>
    </g>
</svg>
